<svg width="19" height="14" viewBox="0 0 19 14" fill="none" xmlns="http://www.w3.org/2000/svg">
<path d="M16.9643 0H2.03571C1.49581 0 0.978017 0.214477 0.596247 0.596247C0.214476 0.978018 0 1.49581 0 2.03571V11.5357C0 12.0756 0.214476 12.5934 0.596247 12.9752C0.978017 13.357 1.49581 13.5714 2.03571 13.5714H16.9643C17.5042 13.5714 18.022 13.357 18.4038 12.9752C18.7855 12.5934 19 12.0756 19 11.5357V2.03571C19 1.49581 18.7855 0.978018 18.4038 0.596247C18.022 0.214477 17.5042 0 16.9643 0ZM2.03571 1.35714H16.9643C17.1443 1.35714 17.3169 1.42864 17.4441 1.55589C17.5714 1.68315 17.6429 1.85575 17.6429 2.03571V3.39286H1.35714V2.03571C1.35714 1.85575 1.42864 1.68315 1.55589 1.55589C1.68315 1.42864 1.85575 1.35714 2.03571 1.35714ZM16.9643 12.2143H2.03571C1.85575 12.2143 1.68315 12.1428 1.55589 12.0155C1.42864 11.8883 1.35714 11.7157 1.35714 11.5357V6.10714H17.6429V11.5357C17.6429 11.7157 17.5714 11.8883 17.4441 12.0155C17.3169 12.1428 17.1443 12.2143 16.9643 12.2143Z" fill="white"/>
<path d="M15.6071 10.1786H9.5V11.5358H15.6071V10.1786Z" fill="white"/>
</svg>
