<svg width="22" height="24" viewBox="0 0 22 24" fill="none" xmlns="http://www.w3.org/2000/svg">
<path d="M11 0C6.02948 0 2.00004 4.02944 2.00004 9V14.3787L0.939384 15.4393C0.510387 15.8683 0.382053 16.5135 0.614225 17.074C0.846396 17.6345 1.39335 18 2.00004 18H20C20.6067 18 21.1537 17.6345 21.3859 17.074C21.618 16.5135 21.4897 15.8683 21.0607 15.4393L20 14.3787V9C20 4.02944 15.9706 0 11 0Z" fill="#00C2FF"/>
<path d="M11 24C8.51472 24 6.5 21.9853 6.5 19.5H15.5C15.5 21.9853 13.4853 24 11 24Z" fill="#00C2FF"/>
</svg>
