<svg width="70" height="71" viewBox="0 0 70 71" fill="none" xmlns="http://www.w3.org/2000/svg">
<path d="M62.5 36.2002C62.5 50.8986 50.3206 63.0521 35 63.0521C19.6794 63.0521 7.5 50.8986 7.5 36.2002C7.5 21.5019 19.6794 9.34839 35 9.34839C50.3206 9.34839 62.5 21.5019 62.5 36.2002Z" stroke="#00C2FF" stroke-width="15"/>
<path d="M62.6529 35.7839C62.6529 40.9811 61.2175 45.8318 58.7179 49.9772C54.4735 57.0429 47.1603 62.0421 38.622 63.1435H38.5725C37.4341 63.292 36.2585 63.3662 35.0706 63.3662H35.0582C33.8703 63.3662 32.7071 63.292 31.5687 63.1435C31.5439 63.1435 31.5192 63.1435 31.4944 63.1311C22.9685 62.0298 15.6553 57.0306 11.4233 49.9772C8.9237 45.8318 7.48828 40.9811 7.48828 35.7839C7.48828 26.0205 12.5617 17.4451 20.1967 12.5449C24.4906 9.79782 29.5888 8.20154 35.0582 8.20154C40.6267 8.20154 45.8115 9.84732 50.1425 12.681C57.6785 17.6184 62.6529 26.1195 62.6529 35.7839V35.7839Z" fill="#B0BAC6"/>
<path d="M41.6662 46.6237L41.3692 45.0646C41.3692 45.0646 41.1589 45.411 40.7505 45.906C40.6268 46.0421 40.503 46.203 40.3422 46.3639C40.2927 46.4134 40.2432 46.4752 40.1937 46.5247C39.179 47.5889 37.5208 48.8635 35.4296 48.9996H35.0583C34.9717 48.9996 34.8975 48.9996 34.8232 48.9872H34.6871C33.1651 48.8882 31.8905 48.1953 30.9006 47.4157C30.4675 47.0692 30.0962 46.7103 29.7869 46.3886C29.626 46.2154 29.4775 46.0545 29.3538 45.8936C28.9454 45.3987 28.7351 45.0522 28.7351 45.0522L28.1782 47.9725L28.1906 48.0344L31.4822 63.131C31.5069 63.131 31.5317 63.1434 31.5564 63.1434C32.6948 63.2919 33.858 63.3662 35.046 63.3662H35.0583C36.2463 63.3662 37.4095 63.2919 38.5603 63.1434H38.6098L41.9137 47.9849L41.6662 46.6237V46.6237Z" fill="white"/>
<path d="M19.9368 23.7808C18.489 24.3252 17.7837 25.575 17.7837 27.2084C17.7837 29.3121 19.4913 31.0321 21.6074 31.0321C21.8301 31.0321 22.0405 31.0074 22.2508 30.9702C21.3599 28.9285 20.3204 26.6516 19.9368 23.7808Z" fill="#C3A898"/>
<path d="M50.1797 23.7808C51.6275 24.3252 52.3328 25.575 52.3328 27.2084C52.3328 29.3121 50.6252 31.0321 48.5092 31.0321C48.2865 31.0321 48.0761 31.0074 47.8657 30.9702C48.7567 28.9285 49.7837 26.6516 50.1797 23.7808Z" fill="#D4C1B5"/>
<path d="M29.3538 39.0507V46.2278C29.3538 46.2278 30.9872 49.012 35.0459 49.012V41.4885C35.0583 41.4885 32.9176 39.8303 29.3538 39.0507Z" fill="#C3A898"/>
<path d="M31.5687 63.1434C31.544 63.1434 31.5192 63.1434 31.4945 63.131C22.9686 62.0297 15.6554 57.0305 11.4233 49.9771C11.7574 49.9153 12.2895 49.8039 12.9701 49.643C14.0838 49.3955 15.5811 49.0367 17.2269 48.5912C18.2663 48.3066 19.3553 47.9849 20.4442 47.626C24.7133 46.2277 28.933 44.3097 29.3537 42.0452V42.0204C29.3537 42.0204 29.527 43.8147 29.7744 46.3886C29.7868 46.5247 29.7992 46.6732 29.8116 46.8217C29.8363 47.0815 29.8611 47.3538 29.8982 47.626C30.4179 52.7737 31.148 60.0251 31.5687 63.1434V63.1434Z" fill="#231F20"/>
<path d="M40.7503 39.0507V46.2278C40.7503 46.2278 39.1169 49.012 35.0581 49.012V41.4885C35.0581 41.4885 37.1989 39.8303 40.7503 39.0507Z" fill="#D4C1B5"/>
<path d="M35.0581 41.8596C32.4224 41.8596 29.366 39.2487 29.366 39.2487V40.7336C31.185 42.9609 35.0581 43.3198 35.0581 43.3198C35.0581 43.3198 38.9313 42.9609 40.7503 40.7336V39.2487C40.7503 39.2487 37.6939 41.8596 35.0581 41.8596V41.8596Z" fill="#BA9E81"/>
<path d="M51.1572 8.59747C50.6251 7.1868 49.4991 6.66708 49.3011 6.58046C49.2887 6.29585 49.2145 5.26878 48.5215 4.56345C47.68 3.70962 46.257 3.66012 45.0938 4.56345C45.0567 4.36546 44.8216 3.01666 43.7203 2.3237C42.7303 1.70498 41.431 1.86585 40.4906 2.76917C40.4658 2.48456 40.1936 1.43275 39.216 0.752162C38.0776 -0.0274193 36.1843 -0.54714 34.9716 1.33375C33.7713 -0.54714 32.076 -0.114039 30.9376 0.665542C29.9477 1.34613 29.6878 2.48456 29.6631 2.76917C28.7102 1.86585 27.4233 1.69261 26.4334 2.3237C25.3321 3.01666 25.0969 4.36546 25.0598 4.56345C23.8966 3.66012 22.4736 3.70962 21.6321 4.56345C20.9392 5.26878 20.8649 6.29585 20.8526 6.58046C20.6422 6.66708 19.5161 7.17443 18.9964 8.59747C18.3653 10.268 19.1078 11.79 19.1944 11.9509C19.0583 14.2278 18.7984 16.4923 18.7984 18.7692C18.7984 27.493 24.6143 34.5711 24.6143 34.5711L35.083 22.9764L45.5517 34.5711C45.5517 34.5711 51.3676 27.5054 51.3676 18.7692C51.3676 16.4923 51.1077 14.2154 50.9716 11.9509C51.0459 11.7777 51.7759 10.268 51.1572 8.59747V8.59747Z" fill="#231F20"/>
<path d="M35.0583 41.6617C35.0583 41.6617 17.9817 39.2487 20.4813 13.3492H35.0583V41.6617V41.6617Z" fill="#C3A898"/>
<path d="M28.8463 26.8125C29.7074 26.8125 30.4054 26.0036 30.4054 25.0058C30.4054 24.008 29.7074 23.1992 28.8463 23.1992C27.9852 23.1992 27.2871 24.008 27.2871 25.0058C27.2871 26.0036 27.9852 26.8125 28.8463 26.8125Z" fill="#1D1D1D"/>
<path d="M35.0581 41.6617C35.0581 41.6617 52.1347 39.2487 49.635 13.3492H35.0581V41.6617Z" fill="#D4C1B5"/>
<path d="M58.7179 49.9772C54.4735 57.0429 47.1603 62.0422 38.622 63.1435H38.5725C39.0056 59.8395 39.8099 51.9571 40.3173 46.8094C40.3173 46.7104 40.3297 46.6361 40.342 46.5495C40.342 46.4876 40.3544 46.4382 40.3544 46.3763C40.5648 44.3345 40.7133 42.7754 40.7628 42.2433C40.7751 42.1071 40.7751 42.0329 40.7751 42.0329C41.1464 44.087 44.6483 45.8813 48.5091 47.2425C52.7535 48.7274 57.4062 49.7173 58.7179 49.9772V49.9772Z" fill="#231F20"/>
<path d="M41.2701 26.8125C42.1312 26.8125 42.8293 26.0036 42.8293 25.0058C42.8293 24.008 42.1312 23.1992 41.2701 23.1992C40.409 23.1992 39.7109 24.008 39.7109 25.0058C39.7109 26.0036 40.409 26.8125 41.2701 26.8125Z" fill="#1D1D1D"/>
<path d="M35.0706 33.2224H32.3977L32.4348 33.2595C33.8826 34.6825 36.2461 34.6825 37.6939 33.2595L37.731 33.2224H35.0706Z" fill="white"/>
<path d="M19.4543 23.4466L20.0236 12.2231H50.1303L50.1055 23.1868C50.1055 23.1868 49.6229 26.1814 47.8781 26.8125C47.8781 26.8125 48.8928 18.1504 44.2401 15.8117C44.2401 15.8117 46.1086 18.7692 46.0344 20.749C46.0344 20.749 35.1326 13.9432 25.9632 14.1783C25.9509 14.1783 21.36 15.0692 19.4543 23.4466V23.4466Z" fill="#231F20"/>
<path d="M29.3538 41.1048L26.916 42.367L28.3762 45.5967L27.2872 46.0298L30.3932 52.5882L29.3538 41.1048ZM40.7505 41.1048L43.2006 42.367L41.7281 45.5967L42.817 46.0298L39.711 52.5882L40.7505 41.1048Z" fill="#474748"/>
</svg>
