<svg width="80" height="80" viewBox="0 0 80 80" fill="none" xmlns="http://www.w3.org/2000/svg">
<circle cx="40" cy="40" r="40" fill="#FFB300"/>
<path d="M49.7984 24.8783C49.1126 25.6695 49.0599 26.8301 49.6929 27.6214C51.2227 29.626 52.1723 32.1053 52.1723 34.7957C52.1723 37.8026 51.0117 40.5985 49.1127 42.6558C48.3741 43.4998 48.3214 44.7132 49.0599 45.5572L49.1127 45.6099C49.9567 46.6122 51.4865 46.5595 52.3305 45.6099C54.9154 42.7613 56.498 38.9631 56.498 34.8485C56.498 31.1558 55.2319 27.7269 53.1218 24.9838C52.2778 23.9287 50.6952 23.876 49.7984 24.8783ZM28.7503 34.8485C28.7503 32.1581 29.647 29.626 31.2296 27.6741C31.8626 26.8829 31.8626 25.7223 31.1769 24.931L31.1241 24.8783C30.2273 23.8232 28.6447 23.9287 27.8007 24.9838C25.6906 27.7269 24.4246 31.103 24.4246 34.8485C24.4246 39.0159 26.0071 42.7613 28.592 45.6099C29.4888 46.5595 30.9658 46.5595 31.8099 45.6099L31.8626 45.5572C32.6012 44.7132 32.5484 43.4998 31.8099 42.6558C29.858 40.5985 28.7503 37.8553 28.7503 34.8485Z" fill="#0D0D0D"/>
<path d="M54.7055 19.2337C53.9669 20.0777 53.9669 21.2911 54.7055 22.0823C57.7651 25.4585 59.6115 29.9424 59.6115 34.8484C59.6115 40.0709 57.5014 44.8186 54.0725 48.3003C53.2812 49.0915 53.2284 50.3576 53.9669 51.2016L54.0197 51.2544C54.8637 52.2039 56.2881 52.2567 57.1848 51.3599C61.3523 47.1397 63.9372 41.2842 63.9372 34.9012C63.9372 28.8874 61.6688 23.4011 57.9761 19.2865C57.0793 18.2314 55.5495 18.2842 54.7055 19.2337ZM21.366 34.8484C21.366 29.9424 23.2123 25.4585 26.2719 22.0823C27.0105 21.2911 26.9577 20.0777 26.2719 19.2865L26.2192 19.2337C25.3752 18.2842 23.8453 18.2314 23.0013 19.181C19.3086 23.3484 17.0403 28.8346 17.0403 34.8484C17.0403 41.2314 19.6251 47.087 23.7926 51.3071C24.6894 52.2039 26.1137 52.1512 26.9577 51.2016L27.0105 51.1489C27.749 50.3048 27.6963 49.0388 26.905 48.2475C23.4761 44.8186 21.366 40.0709 21.366 34.8484Z" fill="#0D0D0D"/>
<path d="M46.0006 34.8469C46.0006 31.7872 43.5212 29.3079 40.4616 29.3079C37.402 29.3079 34.9226 31.7872 34.9226 34.8469C34.9226 37.379 36.6107 39.4891 38.9318 40.1748V62.9639C38.9318 63.2276 39.1428 63.4914 39.4593 63.4914H41.5166C41.7804 63.4914 42.0442 63.2804 42.0442 62.9639V40.1748C44.3125 39.4891 46.0006 37.379 46.0006 34.8469Z" fill="#080808"/>
</svg>
