<svg width="40" height="58" viewBox="0 0 40 58" fill="none" xmlns="http://www.w3.org/2000/svg">
<path d="M27 2.20948C26.6576 2.01688 26.1949 1.99851 25.686 2.20948C22.3176 3.57625 18.9584 5.21826 15.5901 7.1354C12.2401 9.05259 8.89027 11.2541 5.54965 13.74C4.41145 14.5748 3.56932 16.1433 3.56932 17.4459L3.68963 56.5506C3.68963 57.257 3.9395 57.7615 4.35593 58L0.768159 55.9384C0.370251 55.7 0.111117 55.1954 0.111117 54.4891L7.56695e-05 15.3752C-0.00918693 14.0818 0.832943 12.504 1.96188 11.6784C5.32102 9.19257 8.6709 6.99102 12.0208 5.08306C15.3799 3.15669 18.7391 1.50555 22.1075 0.147954C22.6257 -0.0538823 23.0791 -0.0447002 23.4215 0.147954L27 2.20948Z" fill="#D9DDDD"/>
<path d="M15.4244 7.07042C18.6198 5.1492 21.8166 3.50908 25.0156 2.15046C26.0877 1.69496 26.8902 2.30122 26.8937 3.59646L27 42.6355C27.0035 43.9372 26.2069 45.5049 25.1359 46.3378C21.9446 48.8205 18.7539 51.0209 15.5631 52.9393C12.3723 54.8577 9.18148 56.4942 5.98984 57.8492C4.9178 58.3047 4.10983 57.7018 4.10629 56.4L4.00001 17.361C3.99649 16.0658 4.79853 14.4948 5.86953 13.6553C9.05344 11.1812 12.2383 8.98603 15.4244 7.07042Z" fill="#434240"/>
<path d="M16.9998 49.8249C17.0119 50.5742 16.3346 51.4734 15.512 51.8387C14.6774 52.2134 14 51.9136 14 51.1643C14 50.4431 14.6774 49.5252 15.4999 49.1599C16.3225 48.7852 16.9998 49.0943 16.9998 49.8249Z" fill="#CCCECE"/>
<path d="M26 40.6784C26 41.4679 25.4508 42.4153 24.7542 42.8101L7.34205 52.837C6.64558 53.2205 6.09066 52.9047 6.09066 52.1264L6.00004 19.3219C5.99441 18.5437 6.54366 17.5793 7.23446 17.1845L24.6467 7.16891C25.3432 6.77418 25.9037 7.09566 25.9037 7.87948L26 40.6784Z" fill="white"/>
<path d="M18.6524 7C18.6787 7.08447 18.6961 7.18057 18.6964 7.29447C18.697 7.57117 18.6156 7.878 18.4803 8.15307C18.3481 8.42385 18.1621 8.66073 17.9569 8.79978L12.3963 12.5678C12.2505 12.6666 12.1151 12.6992 12 12.6784C12.1016 13.0031 12.3758 13.1019 12.6999 12.8823L18.2606 9.11423C18.4658 8.97518 18.6517 8.7383 18.7839 8.46752C18.9192 8.19245 19.0007 7.88565 19 7.60892C18.9991 7.25403 18.8601 7.03719 18.6524 7Z" fill="#CCCECE"/>
<path d="M12.4576 11.8976L18.2321 8.58663C18.4452 8.46444 18.6384 8.25629 18.7756 8.01836C18.9161 7.77666 19.0007 7.50705 19 7.26392C18.9997 7.16383 18.9816 7.07939 18.9543 7.00516C18.8349 6.98708 18.6943 7.01575 18.5424 7.10283L12.7679 10.4138C12.5548 10.536 12.3633 10.7469 12.2244 10.9839C12.0856 11.2247 11.9993 11.4915 12 11.7346C12.0003 11.8353 12.0185 11.9202 12.046 11.9947C12.1656 12.013 12.3062 11.9844 12.4576 11.8976Z" fill="#8D9799"/>
<path d="M21.4361 2.21536C20.8391 1.87654 19.855 1.87654 19.2581 2.21536C18.7257 2.52189 18.6611 2.98972 19.0645 3.32854C19.1129 3.2801 19.1774 3.23175 19.2581 3.1833C19.855 2.84457 20.8391 2.84457 21.4361 3.1833C21.5006 3.23175 21.5651 3.2801 21.6296 3.32854C22.0168 2.98972 21.9523 2.52189 21.4361 2.21536Z" fill="white"/>
<path d="M19.258 3.18331C19.1774 3.23175 19.1129 3.2801 19.0645 3.32855C19.1129 3.3769 19.1774 3.42534 19.258 3.47369C19.8711 3.82867 20.8391 3.82867 21.4361 3.47369C21.5005 3.44149 21.565 3.39304 21.6296 3.3447V3.32855C21.565 3.2801 21.5005 3.23175 21.4361 3.18331C20.8391 2.84458 19.855 2.84458 19.258 3.18331Z" fill="#434240"/>
<path d="M3.42743 24.1329C3.42743 24.3243 3.38326 24.4862 3.32435 24.6187C3.26545 24.7439 3.17711 24.8396 3.07403 24.9059H3.06666L2.7284 25.1191C2.7431 25.1117 2.75784 25.1044 2.7652 25.0896L2.7284 25.1117C2.77994 25.0823 2.83144 25.0455 2.8756 24.9939C3.00074 24.854 3.07439 24.6332 3.07439 24.3534C3.07439 23.5878 2.54436 22.6602 1.88178 22.2774C1.54312 22.086 1.24131 22.0713 1.02783 22.1964L1.37346 21.9833C1.59435 21.8581 1.89616 21.8728 2.22745 22.0642C2.88999 22.447 3.42743 23.3673 3.42743 24.1329Z" fill="#434240"/>
<path d="M1.87963 22.2792C1.21674 21.8965 0.677948 22.2035 0.675788 22.9652C0.673631 23.7262 1.20893 24.6541 1.87181 25.0368C2.53408 25.4192 3.07289 25.1114 3.07505 24.3504C3.07721 23.5887 2.5419 22.6615 1.87963 22.2792Z" fill="#21201F"/>
<path d="M3.42743 28.1229C3.42743 28.3217 3.38326 28.4763 3.32435 28.6088C3.29488 28.6751 3.25808 28.7266 3.21391 28.7781C3.16974 28.8297 3.1182 28.8665 3.06666 28.9033L2.85319 29.0358L2.7284 29.1092C2.7431 29.1018 2.75784 29.0944 2.7652 29.0797C2.80937 29.0576 2.84617 29.0208 2.8756 28.984C3.00074 28.8441 3.07439 28.6232 3.07439 28.3435C3.07439 27.5779 2.54436 26.6503 1.88178 26.2675C1.54312 26.0761 1.24131 26.0614 1.02783 26.1865L1.37346 25.9733C1.59435 25.8481 1.89616 25.8629 2.22745 26.0543C2.88999 26.4371 3.42743 27.3573 3.42743 28.1229Z" fill="#434240"/>
<path d="M2.69945 28.7408C2.67002 28.7777 2.63322 28.8145 2.58905 28.8366L2.55225 28.8587C2.60378 28.8292 2.65528 28.7924 2.69945 28.7408Z" fill="#D6D4D2"/>
<path d="M1.87963 26.2705C1.21674 25.8878 0.677948 26.1948 0.675788 26.9565C0.673631 27.7176 1.20893 28.6454 1.87181 29.0281C2.53408 29.4105 3.07289 29.1028 3.07505 28.3418C3.07721 27.5801 2.5419 26.6529 1.87963 26.2705Z" fill="#21201F"/>
<path d="M22.7863 39.4761L8.49077 47.7265L8.48242 44.2982L22.778 36.0478L22.7863 39.4761Z" fill="#638DFF"/>
<path d="M10.597 43.6514L10.6041 45.9378L9.37386 46.649L9.3667 44.3614L10.597 43.6514Z" fill="white"/>
<path d="M14.4119 41.4487L14.4191 43.7362L13.1888 44.4462L13.1816 42.1587L14.4119 41.4487Z" fill="white"/>
<path d="M16.3196 40.3473L16.3256 42.6348L15.0953 43.3448L15.0894 41.0573L16.3196 40.3473Z" fill="white"/>
<path d="M18.2278 39.2458L18.2338 41.5333L17.0035 42.2433L16.9976 39.9558L18.2278 39.2458Z" fill="white"/>
<path d="M12.5047 42.55L12.5107 44.8364L11.2804 45.5476L11.2744 43.2601L12.5047 42.55Z" fill="white"/>
<path d="M7.66025 35.1994L7.15191 34.9046L7.14355 31.9835L7.65189 32.2782L7.66025 35.1994Z" fill="#1F2633"/>
<path d="M7.65189 32.2781L7.14355 31.9834L23.4999 22.5397L24.0083 22.8345L7.65189 32.2781Z" fill="#38425D"/>
<path d="M24.0082 22.8345L24.0166 25.7557L7.66021 35.1994L7.65186 32.2782L24.0082 22.8345Z" fill="#2E374C"/>
<path d="M23.2959 24.0731L22.21 24.7008L23.2994 25.3332L23.2959 24.0731Z" fill="#262E3F"/>
<path d="M22.2101 24.7008L8.36914 32.6911L8.37272 33.9619L23.2995 25.344V25.3332L22.2101 24.7008Z" fill="#38425D"/>
<path d="M39.1031 35.4492L39.0967 36.8234C39.0967 37.0117 38.9723 37.2 38.7265 37.3436L28.3287 43.3851C27.8308 43.6755 27.0266 43.6787 26.5287 43.3883L8.36914 32.691L9.37126 32.1077L26.5319 42.0141C27.0329 42.3013 27.8372 42.3013 28.3319 42.0109L38.7297 35.9694C38.9787 35.8258 39.1031 35.6375 39.1031 35.4492Z" fill="#E5392C"/>
<path d="M38.7287 34.9276C39.228 35.2158 39.2265 35.6817 38.7305 35.9699L28.3332 42.0122C27.8372 42.3004 27.0329 42.3028 26.5337 42.0146L9.37256 32.1066L21.5676 25.0196L38.7287 34.9276Z" fill="#FF5230"/>
<path d="M22.6202 28.2507C22.6292 28.3734 22.6364 28.4622 22.6419 28.552C22.7203 28.5491 22.7986 28.5462 22.9353 28.5404C22.8891 28.6293 22.8528 28.6988 22.8083 28.7829C22.6437 28.7384 22.4563 28.7143 22.3568 28.6568C22.2745 28.6093 22.2523 28.5391 22.3527 28.4159C22.3792 28.383 22.2771 28.3164 22.21 28.2333C22.3901 28.2411 22.5418 28.2478 22.6202 28.2507Z" fill="#F4462F"/>
<path d="M23.3596 28.8797L23.3608 28.886H23.3596L23.3521 28.881L23.3596 28.8797Z" fill="#F4462F"/>
<path d="M23.3602 28.8863L23.3589 28.8797L23.3641 28.8863L23.3589 28.8876V28.8863H23.3602Z" fill="#F4462F"/>
<path d="M22.958 28.7519C22.9913 28.7384 23.0262 28.7258 23.0595 28.7123C23.157 28.7686 23.2545 28.8249 23.352 28.8811C23.2528 28.9067 23.1551 28.9331 23.0559 28.9585C23.0238 28.89 22.9901 28.8204 22.958 28.7519Z" fill="#F4462F"/>
<path d="M23.6981 29.0325V29.0387L23.6943 29.0375L23.6981 29.0325Z" fill="#F4462F"/>
<path d="M23.6978 29.0387L23.7003 29.0336L23.7065 29.0387H23.6978Z" fill="#F4462F"/>
<path d="M24.0264 29.0011C24.1487 29.0967 24.4026 29.174 24.2002 29.3575C24.025 29.2449 23.8662 29.1418 23.7059 29.0379C23.8116 29.0256 23.9174 29.0134 24.0264 29.0011ZM23.7849 29.2537C23.8421 29.2868 23.8345 29.3739 23.8572 29.4347C23.7561 29.4178 23.6233 29.4192 23.561 29.3833C23.5596 29.3824 23.5581 29.3816 23.5567 29.3807C23.4061 29.2841 23.2904 29.1692 23.1012 29.0117C23.243 29.0339 23.3248 29.0484 23.48 29.0726C23.4267 28.9883 23.3951 28.936 23.3629 28.8858C23.4698 28.8495 23.5271 28.8512 23.5609 28.8708C23.5907 28.888 23.6025 28.919 23.6143 28.9499C23.6248 28.9797 23.6362 29.01 23.666 29.0272C23.6739 29.0317 23.6831 29.0353 23.6939 29.0378C23.6298 29.108 23.6179 29.1639 23.7148 29.2198C23.7318 29.2296 23.7521 29.2394 23.7761 29.2493C23.7792 29.2507 23.7821 29.2521 23.7849 29.2537ZM23.3918 29.469C23.4456 29.5001 23.4859 29.5364 23.4894 29.567C23.5279 29.8877 23.5314 30.2093 23.5298 30.5299C23.5284 30.5656 23.4169 30.5994 23.357 30.6342C23.327 30.6226 23.2952 30.612 23.2635 30.6014C23.254 30.3899 23.2528 30.1774 23.2249 29.9649C23.2215 29.9367 23.1828 29.906 23.1364 29.8792C23.1115 29.8648 23.0843 29.8515 23.0591 29.8404C23.0333 29.8287 23.0095 29.8167 22.988 29.8043C22.8466 29.7226 22.8022 29.624 22.9072 29.5159C22.9636 29.4599 23.13 29.3903 23.21 29.4019C23.2681 29.4112 23.3369 29.4374 23.3918 29.469ZM23.1178 30.381C23.1991 30.428 23.1692 30.5086 23.1006 30.6941C23.0005 30.6883 22.8971 30.6825 22.8021 30.6757C22.7663 30.5454 22.7323 30.4256 22.6982 30.3001C22.9263 30.3286 23.0551 30.3448 23.1178 30.381ZM25.2472 32.3185C25.1347 32.4614 25.0735 32.5512 24.9973 32.6362C24.9492 32.6893 24.8895 32.7434 24.813 32.782C24.7965 32.79 24.6825 32.7576 24.6447 32.7358C24.6369 32.7313 24.6323 32.7273 24.6326 32.7241C24.6406 32.6691 24.697 32.615 24.7218 32.5754C24.6434 32.5648 24.5483 32.5522 24.4515 32.5387C24.5363 32.501 24.6127 32.4508 24.7093 32.4257C24.8658 32.3851 25.0324 32.36 25.2472 32.3185Z" fill="#F4462F"/>
<path d="M21.9872 28.4793C22.0015 28.4875 22.0125 28.4959 22.0181 28.5037C22.0753 28.5868 22.0558 28.6872 22.1147 28.7693C22.1667 28.8417 22.2788 28.9007 22.3893 28.9818C22.3116 29.1064 22.2092 29.2763 22.1117 29.4376C21.8794 29.3266 21.652 29.2184 21.423 29.1093C21.3997 29.1247 21.3781 29.1411 21.3566 29.1576C21.5958 29.3111 21.8252 29.4705 22.0761 29.6173C22.2362 29.7097 22.3169 29.6264 22.4108 29.5525C22.5602 29.4328 22.723 29.315 22.9091 29.2145C22.9573 29.1885 23.1109 29.2271 23.2296 29.2744C22.5595 29.3014 22.7197 29.6327 22.5408 29.8278C22.6825 29.8307 22.8209 29.8336 22.961 29.8355C22.9661 29.8539 22.9695 29.8732 22.973 29.8925C22.8899 29.9408 22.8068 29.9891 22.722 30.0383L22.7084 29.9881C22.3001 30.0238 21.8868 30.0509 21.4869 30.105C21.4086 30.1156 21.311 30.2518 21.343 30.3087C21.4441 30.4864 21.6501 30.6516 21.3794 30.8476C21.4178 30.8602 21.4529 30.8727 21.4897 30.8863C21.784 30.7424 22.0783 30.5965 22.3809 30.4478C22.4238 30.4613 22.4618 30.4779 22.4941 30.4965C22.6275 30.5736 22.664 30.6869 22.5544 30.7771C22.5113 30.8138 22.4849 30.8582 22.4518 30.8988C22.5418 30.9027 22.6335 30.9056 22.7002 30.9094C22.6661 31.0611 22.6469 31.2117 22.5861 31.3575C22.5696 31.3981 22.4182 31.4551 22.3498 31.4464C22.193 31.4251 22.0493 31.3691 21.904 31.3276C21.8387 31.4306 21.8077 31.5628 21.525 31.3996C21.3471 31.2967 21.0852 31.2669 20.8857 31.402C20.8574 31.4223 20.8226 31.4561 20.7943 31.4551C20.4641 31.4493 20.2127 31.5082 20.1423 31.7332C20.0861 31.5359 20.0696 31.4599 19.9498 31.3907C19.8808 31.3509 19.7776 31.3133 19.6127 31.2562C19.4807 31.2108 19.2674 31.2281 19.1025 31.2465C19.0525 31.2523 18.9799 31.3856 19.0184 31.4136C19.0285 31.4206 19.0392 31.4274 19.0505 31.4339C19.1474 31.4898 19.2844 31.5278 19.4161 31.5797C19.3434 31.6878 19.2291 31.824 19.1732 31.967C19.1622 31.9955 19.2207 32.0538 19.283 32.0898C19.3133 32.1073 19.3446 32.1196 19.3692 32.1205C19.5538 32.1279 19.6808 32.1661 19.7757 32.2209C19.9277 32.3087 19.9978 32.4392 20.0919 32.5551C20.1624 32.642 20.2246 32.7396 20.2285 32.8323C20.2322 32.9018 20.1392 32.9713 20.0896 33.037C20.2152 33.1423 20.3676 33.2591 20.495 33.3827C20.6308 33.5131 20.5578 33.5807 20.3029 33.6126C20.1696 33.63 20.0499 33.686 19.9149 33.7063C19.745 33.7314 19.5667 33.7439 19.3883 33.7526C19.295 33.7565 19.1965 33.7324 19.1015 33.7372C18.6998 33.7555 18.2964 33.7729 17.8998 33.8077C17.6765 33.827 17.46 33.8772 17.2435 33.9178C17.1935 33.9274 17.1536 33.9526 17.1087 33.9709C16.954 34.0395 16.801 34.109 16.6447 34.1786C16.529 34.0694 16.5831 33.8908 16.8857 33.7401C17.2581 33.5527 17.654 33.3847 18.0347 33.2022C18.2875 33.0805 18.542 32.981 18.4872 32.728C18.4256 32.4402 18.6932 32.2905 19.1963 32.2171C18.9313 31.9486 19.0745 31.6096 18.7029 31.3527C18.6108 31.288 18.6917 31.1383 18.7011 31.0282C18.7089 30.9384 18.7301 30.8486 18.6895 30.7501C18.6481 30.7974 18.6084 30.8457 18.5703 30.893C18.5352 30.8882 18.5019 30.8824 18.4685 30.8766C18.5394 30.7385 18.6086 30.5994 18.6829 30.4613C18.706 30.4188 18.7441 30.3793 18.7722 30.3397C18.8252 30.2624 18.8395 30.1494 18.936 30.1146C19.387 29.9591 19.3571 29.682 19.4925 29.4463C19.6163 29.229 19.4968 29.033 19.3107 28.8505C19.2944 28.8348 19.2762 28.8214 19.2564 28.8099C19.1403 28.7429 18.9692 28.7468 18.7886 28.807C18.5248 28.7433 18.2777 28.6834 18.0306 28.6235L18.0521 28.58C18.2405 28.5926 18.429 28.6052 18.6392 28.6187C18.4441 28.3232 18.5215 28.1541 18.947 28.2111C18.9149 28.1406 18.8828 28.0663 18.8507 27.9919C18.9591 28.0006 19.0676 28.0093 19.2043 28.0209C19.2091 27.9755 19.2171 27.9146 19.2251 27.8538C19.5788 27.8136 19.757 27.8186 19.9201 27.9127C19.9882 27.9521 20.0538 28.007 20.1284 28.0807C20.2323 28.1812 20.3213 28.2884 20.4002 28.3956C20.44 28.4523 20.4874 28.4967 20.5492 28.5324C20.6286 28.5783 20.7318 28.6097 20.8734 28.6341C20.9542 28.6487 21.0264 28.6806 21.0947 28.72C21.2027 28.7823 21.301 28.8636 21.4086 28.9258C21.3854 28.9432 21.3621 28.9605 21.3405 28.9789C21.4422 28.9702 21.5455 28.9625 21.6255 28.9547C21.6318 28.8852 21.6397 28.8128 21.6492 28.7259C21.5808 28.7094 21.4956 28.6872 21.3353 28.6467C21.5082 28.5578 21.6328 28.4796 21.7859 28.4255C21.8166 28.4139 21.9291 28.4458 21.9872 28.4793Z" fill="#F4462F"/>
<path d="M27.6638 37.4389C27.8797 37.5809 28.0437 37.6832 28.1927 37.7924C28.3434 37.9024 28.4774 38.0203 28.6432 38.1545C28.5348 38.1458 28.4381 38.1381 28.3263 38.1294C28.3232 38.1719 28.3218 38.2134 28.3204 38.2549C28.292 38.2598 28.2671 38.2646 28.2421 38.2694C28.0639 38.0145 27.8857 37.7576 27.6638 37.4389ZM27.526 37.8446C27.5857 37.8791 27.5896 37.9344 27.5088 38.0251C27.4856 38.0502 27.5375 38.0975 27.5595 38.1468C27.6493 38.1178 27.7242 38.0937 27.8091 38.0657C27.8209 38.0859 27.841 38.1033 27.8377 38.1188C27.8087 38.2868 27.7746 38.4539 27.7489 38.6219C27.7247 38.7658 27.3354 38.9223 26.9703 38.9291C26.8936 38.9311 26.8066 38.9038 26.7327 38.8611C26.6346 38.8044 26.5595 38.7208 26.5619 38.6432C26.5686 38.4918 26.5233 38.3666 26.372 38.2792C26.2906 38.2322 26.1785 38.1962 26.0274 38.1729C25.9072 38.1555 25.8068 38.0898 25.6815 38.0386C25.7579 37.9807 25.8493 37.9353 25.8823 37.8793C26.0128 37.662 26.1891 37.5847 26.58 37.7238C26.7605 37.7875 27.0222 37.7769 27.2473 37.7914C27.3718 37.7992 27.4718 37.8133 27.526 37.8446ZM30.5161 32.9133C29.9425 32.8921 29.4119 32.8264 29.0633 33.1065C29.0528 33.101 29.043 33.0956 29.0337 33.0902C28.8822 33.0028 28.8972 32.9365 29.0854 32.8728C29.5313 32.7202 29.9828 32.6632 30.5161 32.9133ZM25.2481 36.2848C25.2481 36.2887 25.2835 36.3476 25.2554 36.3911C25.1872 36.4916 24.5188 36.513 24.3696 36.4268C24.3668 36.4252 24.3643 36.4236 24.3619 36.422C24.6468 36.3785 24.9299 36.3341 25.2481 36.2848ZM23.9101 35.8377C23.6638 35.9188 23.4724 35.9874 23.2727 36.0453C23.2437 36.0551 23.1682 36.0396 23.1379 36.0221C23.1351 36.0205 23.1328 36.0189 23.1308 36.0173C23.1107 35.998 23.1238 35.9478 23.152 35.9314C23.3398 35.83 23.5327 35.7257 23.9101 35.8377ZM25.2043 31.5882C25.2178 31.596 25.2303 31.604 25.2418 31.6125C25.2937 31.6521 25.3141 31.7081 25.3477 31.7564C25.2694 31.767 25.1745 31.7989 25.1127 31.7844C25.0675 31.7726 25.019 31.7535 24.9794 31.7306C24.9444 31.7104 24.9163 31.6872 24.9037 31.6637C24.8784 31.6183 24.9381 31.5584 24.9726 31.4763C25.0714 31.5255 25.1471 31.5552 25.2043 31.5882ZM28.1856 36.8237C28.1744 36.9174 28.1867 37.0149 28.1455 37.1028C28.124 37.1443 28.0008 37.1694 27.9243 37.2003C27.914 37.1521 27.872 37.097 27.8985 37.0564C27.958 36.9695 28.0509 36.8903 28.1288 36.8082L28.1856 36.8237Z" fill="#F4462F"/>
<path d="M27.5865 37.0188C27.5899 37.0362 27.595 37.0526 27.6001 37.069C27.4586 37.1106 27.3222 37.1743 27.1739 37.1869C27.0906 37.1927 26.9851 37.1164 26.8882 37.0777C26.9647 37.041 27.0393 36.9744 27.116 36.9725C27.2711 36.9696 27.4296 37.0014 27.5865 37.0188Z" fill="#F4462F"/>
<path d="M34.1998 36.6266C34.2523 36.7763 34.1458 36.7995 33.9155 36.7686C33.8944 36.6981 33.872 36.6401 33.8223 36.6115C33.7638 36.5777 33.6676 36.5844 33.4914 36.6585C33.3683 36.7107 33.0262 36.6498 32.8457 36.5842C32.6135 36.5001 32.4752 36.5088 32.2472 36.589C32.0425 36.6614 31.7574 36.6585 31.4708 36.6933C31.7081 36.4876 31.7081 36.4876 32.5761 36.3746C32.4441 36.3137 32.3302 36.2307 32.2719 36.2432C32.1171 36.2757 32.0206 36.2465 31.9417 36.2009C31.9009 36.1773 31.8648 36.1495 31.8278 36.1235C31.8058 36.1074 31.7832 36.0925 31.7599 36.0791C31.6155 35.9957 31.4428 35.9636 31.2335 35.9902C31.1601 35.998 31.0603 36.0327 31.0338 36.0694C30.8618 36.3167 30.5641 36.4412 30.122 36.4036C29.8535 36.3814 29.593 36.3157 29.4658 36.5253C29.4592 36.5349 29.3841 36.5282 29.2808 36.532C29.342 36.4499 29.4084 36.3901 29.4263 36.3254C29.4378 36.2858 29.3758 36.2384 29.3472 36.195C29.289 36.2172 29.2124 36.2326 29.1792 36.2616C28.8441 36.5591 28.3895 36.6527 27.8702 36.5185C27.8592 36.5155 27.8493 36.5112 27.8399 36.5058C27.801 36.4833 27.7734 36.4427 27.7328 36.4084C27.5215 36.4809 27.6616 36.787 27.1842 36.6769C27.1721 36.618 27.1601 36.5552 27.1464 36.4895C26.9399 36.5398 26.6121 36.9531 26.7279 37.0796C26.9058 37.2786 27.1402 37.4582 27.358 37.6494C27.2481 37.6179 27.1414 37.5712 27.042 37.5138C26.5298 37.2181 26.2104 36.6386 26.6306 36.3862C26.6444 36.4615 26.6548 36.5311 26.6686 36.6161C27.0861 36.4355 27.1131 36.2008 27.0917 35.9555C26.5858 35.829 26.3892 35.8541 26.0371 36.0859C26.0037 36.082 25.9703 36.0781 25.9386 36.0752C25.9812 35.942 25.9887 35.7981 26.0831 35.6773C26.2735 35.4369 26.2696 35.3442 25.9767 35.1327C25.8879 35.068 25.8341 34.9849 25.7837 34.9076C25.7383 34.8391 25.7228 34.7628 25.6873 34.671C25.5611 34.756 25.5611 34.756 25.852 35.2032C25.5035 35.1867 25.1899 35.1694 24.9347 35.1568C24.8733 35.208 24.8288 35.292 24.7505 35.3026C24.5456 35.3306 24.3239 35.3471 24.1188 35.3306C23.8702 35.3084 23.7105 35.3664 23.6177 35.4745C23.4984 35.6078 23.3686 35.6561 23.0902 35.6494C22.87 35.6436 22.6421 35.7353 22.4157 35.7817C22.0676 35.8541 21.7805 35.7884 21.5195 35.6416C21.637 35.4823 21.7228 35.3181 21.8704 35.1742C21.9931 35.0583 22.1877 34.9685 22.3404 34.8603C22.4285 34.7976 22.5098 34.729 22.5827 34.6575C22.6507 34.587 22.722 34.5146 22.7582 34.4373C22.7845 34.3755 22.8041 34.2925 22.7521 34.2451C22.7273 34.2234 22.6976 34.2034 22.6649 34.1845C22.5871 34.1396 22.4924 34.1011 22.4076 34.0617C22.3546 34.0374 22.3079 34.0138 22.2673 33.9904C22.0369 33.8573 22.0042 33.7299 22.1278 33.5131C22.2219 33.3441 22.5646 33.2147 22.908 33.2108C23.0414 33.2089 23.1781 33.2089 23.3081 33.1934C23.4614 33.1741 23.5981 33.1683 23.6406 33.0312C23.6931 32.8651 23.9582 32.868 24.2909 33.0408C24.3421 32.9568 24.3851 32.8834 24.4066 32.8496C24.8517 32.8467 25.2819 32.8448 25.772 32.8409C25.777 32.8361 25.8234 32.7897 25.8731 32.7337C25.7596 32.7009 25.6744 32.6767 25.5709 32.6478C25.6917 32.4923 25.8563 32.4179 26.1499 32.4295C26.3216 32.4343 26.4931 32.3909 26.6698 32.3793C26.9398 32.36 27.2131 32.3349 27.4848 32.3378C27.5748 32.339 27.6449 32.3572 27.6974 32.3876C27.7628 32.4253 27.801 32.4819 27.8161 32.5483C27.8282 32.6091 27.9018 32.6671 27.9155 32.7289C27.9377 32.8129 27.9315 32.9018 27.9353 32.9887C27.8085 32.9752 27.6801 32.9607 27.5032 32.9414C27.495 32.9539 27.4736 32.9993 27.4505 33.0418C27.5306 33.0534 27.6123 33.0621 27.6891 33.0775C28.0396 33.1374 28.385 33.2002 28.7288 33.26C28.8407 33.2803 28.9575 33.2977 29.0709 33.317C29.0942 33.2996 29.1191 33.2813 29.1423 33.2639C29.1745 33.3479 29.205 33.4329 29.2337 33.5073C29.4533 33.4165 29.6712 33.3267 29.9307 33.2204C29.9597 33.3206 30.0232 33.396 30.1155 33.4493C30.2619 33.5338 30.4808 33.5629 30.7495 33.5469C30.9529 33.5372 31.163 33.5488 31.3682 33.5671C31.5901 33.5874 31.8087 33.6212 32.0223 33.6599C32.0516 33.6655 32.081 33.6776 32.1069 33.6926C32.1341 33.7082 32.1574 33.727 32.1729 33.7448C32.1963 33.768 32.1549 33.8095 32.1684 33.8366C32.3269 34.1514 32.3285 34.1524 31.7752 34.1852C31.8858 34.2915 31.9965 34.3977 32.1088 34.5049C32.1258 34.5229 32.1405 34.5547 32.1598 34.5658C32.2994 34.5833 32.3775 34.6034 32.4202 34.628C32.5362 34.695 32.389 34.796 32.281 34.897C32.2967 34.9043 32.3118 34.9124 32.3265 34.9208C32.362 34.9413 32.3951 34.9645 32.4283 34.9878C32.4588 35.009 32.4897 35.0304 32.5233 35.0499C32.615 35.1028 32.7277 35.1411 32.9142 35.122C33.0038 35.1656 33.0973 35.3038 33.1674 35.3837C33.2262 35.4504 33.2699 35.5218 33.327 35.5894C33.4215 35.6998 33.4749 35.8536 33.6057 35.9291C33.6236 35.9395 33.643 35.9484 33.6642 35.9554C33.7412 35.9814 33.805 36.0099 33.8581 36.0406C34.1355 36.2007 34.1231 36.4192 34.1998 36.6266ZM25.0697 34.2172C25.1833 34.2828 25.2912 34.2929 25.383 34.2297C25.2904 34.0645 25.218 33.9303 25.1169 33.7507C25.1086 33.7536 25.012 33.7806 24.9388 33.8019C24.9518 33.742 24.9615 33.686 24.9729 33.6348C24.7762 33.6502 24.6646 33.6609 24.5996 33.6657C24.6574 33.572 24.7003 33.4947 24.7681 33.3856C24.5931 33.4098 24.5181 33.4184 24.3882 33.4358C24.4628 33.3634 24.5093 33.3228 24.554 33.2794C24.5456 33.2552 24.5371 33.2311 24.527 33.206C24.3269 33.2176 24.1286 33.2263 23.8502 33.2408C23.9216 33.282 23.9558 33.3026 23.9776 33.3151C23.9885 33.3214 23.9963 33.3257 24.0041 33.3296C24.1059 33.3771 24.257 33.4063 24.3473 33.4584C24.4276 33.5048 24.4598 33.5693 24.3662 33.6811C24.3362 33.7145 24.4082 33.8119 24.4727 33.8492C24.4866 33.8572 24.5002 33.8625 24.5123 33.8637C24.6184 33.8724 24.692 33.8965 24.7481 33.9289C24.8668 33.9973 24.907 34.1028 25.0093 34.1775C25.0296 34.1924 25.0497 34.2057 25.0697 34.2172ZM26.3286 32.7791C26.1022 32.8428 25.8959 32.9356 25.6564 33.0283C25.6965 33.0476 25.8018 33.0968 25.8653 33.1278C26.1603 33.1017 26.387 33.0824 26.6119 33.0621C26.5467 33.0205 26.4797 32.9781 26.3542 32.8979C26.5773 32.8322 26.7671 32.7781 26.9601 32.7221C26.9534 32.7067 26.9466 32.6912 26.9399 32.6758C26.735 32.7096 26.5183 32.725 26.3286 32.7791ZM25.4309 33.8395C25.5865 33.9428 25.7438 34.0452 25.9279 34.1669C25.9772 34.0414 26.0101 33.9641 26.0397 33.881C25.856 33.8443 25.6674 33.8067 25.4772 33.77C25.4623 33.7941 25.4457 33.8154 25.4309 33.8395ZM25.0231 33.3731C24.9497 33.3711 24.8763 33.3692 24.8046 33.3682C24.8568 33.4522 24.9106 33.5353 24.9745 33.6319C24.9923 33.5363 25.0052 33.4551 25.0231 33.3731Z" fill="#F4462F"/>
<path d="M30.6128 36.4809C30.6398 36.5446 30.6652 36.6074 30.6787 36.6344C30.2226 36.7716 29.7477 36.8208 29.1982 36.6596C29.3032 36.6374 29.4196 36.591 29.468 36.6074C29.9174 36.7668 30.2516 36.5997 30.6128 36.4809Z" fill="#F4462F"/>
<path d="M20.5105 35.228L19.2731 35.9476L16.3364 34.2519L17.5739 33.5323L20.5105 35.228Z" fill="#EAEFEF"/>
<path d="M16.4236 32.8688L15.1862 33.5872L12.2495 31.8927L13.487 31.1732L16.4236 32.8688Z" fill="#EAEFEF"/>
<path d="M28.6819 39.9451L27.4432 40.6646L24.5054 38.9677L25.7428 38.2494L28.6819 39.9451Z" fill="#EAEFEF"/>
<path d="M24.5955 37.5859L23.3581 38.3054L20.4214 36.6098L21.6588 35.8902L24.5955 37.5859Z" fill="#EAEFEF"/>
<path d="M22.068 28.5753L22.7351 28.66L23.556 29.135L22.2589 29.8891L21.4368 29.4142L21.2876 29.0288L22.068 28.5753Z" fill="#FFD651"/>
<path d="M21.2638 27.9756L21.0943 27.5391L20.2295 27.0398L20.9897 26.598C21.0842 26.5431 21.2331 26.5431 21.3259 26.5967L22.8201 27.4593L21.5988 28.1691L21.2638 27.9756Z" fill="#FFD651"/>
<path d="M20.2698 28.4405L19.6027 28.3558L18.7817 27.8821L20.0788 27.1279L20.901 27.6017L21.0502 27.9871L20.2698 28.4405Z" fill="#FFD651"/>
<path d="M20.4521 28.5097L21.1669 28.0945L21.8829 28.5074L21.1681 28.9238L20.4521 28.5097Z" fill="#FFD651"/>
<path d="M24.4685 28.4109C24.5613 28.4645 24.5618 28.5508 24.4673 28.6057L23.7071 29.0475L22.8423 28.5482L22.088 28.4514L21.7507 28.2567L22.972 27.5469L24.4685 28.4109ZM20.2473 28.5665L20.5824 28.7599L19.3633 29.4684L17.8691 28.6057C17.7763 28.5521 17.7781 28.4645 17.8703 28.4109L18.6328 27.9678L19.4976 28.4671L20.2473 28.5665Z" fill="#FFD651"/>
<path d="M22.7341 28.6605L22.068 28.5756L21.2875 29.0291L21.4363 29.4147L22.2582 29.8892L22.1097 29.9754L21.2449 29.4761L21.0709 29.0422L20.7336 28.8474L19.5145 29.5559L19.3629 29.4683L20.5819 28.7599L20.2469 28.5664L19.4971 28.4671L18.6323 27.9678L18.7808 27.8815L19.6026 28.356L20.2687 28.4409L21.0492 27.9874L20.9004 27.6018L20.0786 27.1273L20.2293 27.0397L21.0941 27.539L21.2635 27.9756L21.5986 28.169L22.8199 27.4593L22.9716 27.5469L21.7503 28.2566L22.0876 28.4514L22.8418 28.5481L23.7067 29.0474L23.5559 29.135L22.7341 28.6605ZM21.1673 28.9232L21.8826 28.5076L21.1672 28.0945L20.4519 28.5102L21.1673 28.9232Z" fill="#FF5230"/>
<path d="M21.0715 29.0423L21.2455 29.4762L22.1103 29.9755L21.3478 30.4186C21.2556 30.4722 21.1044 30.4735 21.0116 30.42L19.5151 29.556L20.7342 28.8475L21.0715 29.0423Z" fill="#FFD651"/>
<path d="M32.5368 36.4259C32.6084 36.4672 32.611 36.5351 32.54 36.5764L32.4001 36.6577L31.5556 36.1701L31.6954 36.0889C31.7665 36.0476 31.8815 36.0476 31.953 36.0888L31.983 36.1062L32.5045 36.4072L32.5368 36.4259ZM31.2493 35.6825C31.3208 35.7238 31.3212 35.7904 31.2501 35.8317L31.1103 35.913L30.2681 35.4268L30.4079 35.3455C30.479 35.3042 30.594 35.3042 30.6655 35.3455L30.6955 35.3628L31.2193 35.6652L31.2493 35.6825Z" fill="#EAEFEF"/>
<path d="M33.4941 34.5274L33.3543 34.6087C33.2809 34.6513 33.1659 34.6513 33.0944 34.61L32.5106 34.273C32.4391 34.2317 32.4387 34.1651 32.5121 34.1225L32.6519 34.0412L33.4941 34.5274ZM34.784 35.2721L34.6441 35.3534C34.5708 35.396 34.4535 35.3947 34.382 35.3534L33.7982 35.0164C33.7267 34.9751 33.7263 34.9085 33.7996 34.8658L33.9395 34.7846L34.784 35.2721Z" fill="#EAEFEF"/>
<path d="M33.064 34.5931L31.2192 35.6647L30.6953 35.3628L32.5401 34.29L33.064 34.5931Z" fill="white"/>
<path d="M36.3639 36.0515C36.3803 36.1008 36.2747 36.1328 36.2147 36.0982L36.0694 36.0142L35.2248 35.5266L34.7841 35.2722L33.9396 34.7846L33.4943 34.5275L32.6521 34.0413L32.5067 33.9573C32.4444 33.9214 32.4993 33.8601 32.5867 33.8707L35.6798 34.2198L35.749 34.2597L36.3639 36.0515ZM33.0847 34.0812L35.9989 35.7638L35.5172 34.3543L33.0847 34.0812Z" fill="white"/>
<path d="M35.5171 34.3544L35.9992 35.7637L33.084 34.0812L35.5171 34.3544Z" fill="#D9DDDD"/>
<path d="M36.0692 36.0141L35.9294 36.0954C35.856 36.138 35.7387 36.1367 35.6672 36.0954L35.0834 35.7584C35.0119 35.7171 35.0115 35.6505 35.0848 35.6078L35.2247 35.5266L36.0692 36.0141Z" fill="#EAEFEF"/>
<path d="M34.3492 35.3353L32.5044 36.4069L31.9829 36.1062L33.8277 35.0334L34.3492 35.3353Z" fill="white"/>
<path d="M35.6368 36.0776L33.792 37.1503L33.2705 36.8496L35.1153 35.7769L35.6368 36.0776Z" fill="white"/>
<path d="M33.822 37.1679C33.8936 37.2092 33.8962 37.2771 33.8252 37.3184L33.6853 37.3997L32.8408 36.9121L32.9807 36.8308C33.0517 36.7895 33.1667 36.7895 33.2383 36.8308L33.2706 36.8495L33.792 37.1506L33.822 37.1679Z" fill="#EAEFEF"/>
<path d="M33.7776 37.453C33.8815 37.5129 33.8797 37.6075 33.7788 37.6661L33.6482 37.7421L29.6748 35.448L29.8055 35.3721C29.9063 35.3135 30.0719 35.3135 30.1735 35.3721L33.7776 37.453Z" fill="#D9DDDD"/>
</svg>
