<svg width="51" height="37" viewBox="0 0 51 37" fill="none" xmlns="http://www.w3.org/2000/svg">
<path d="M43 1.32668V9.4845L9.93681 3.03906C9.1968 2.89429 8.47683 3.35993 8.32772 4.07837L7.71123 7.05693H7.71012L6.34584 13.6558H6.34695L3.7931 26H2.3665C1.61092 26 1 25.4047 1 24.6733V1.32668C1 0.59528 1.61092 0 2.3665 0H41.6335C42.388 0 43 0.59528 43 1.32668Z" fill="#303C44"/>
<path d="M48.8977 10.4858C49.6408 10.6286 50.1225 11.3244 49.9727 12.0385L49.3536 15H49.3514L8 7.01963L8.6191 4.0592C8.76885 3.34513 9.49188 2.88233 10.235 3.02622L43.4386 9.43242L48.8977 10.4858Z" fill="#FFC035"/>
<path d="M47.6432 21.8832L48.9978 15.4046H49L44.912 34.9528C44.764 35.6583 44.0492 36.1155 43.3144 35.9744L5.08985 28.6037C4.35512 28.4626 3.87893 27.7751 4.02698 27.0697L4.22475 26.1213L6.76038 14L47.6432 21.8832Z" fill="#FFC035"/>
<path opacity="0.2" d="M45.7441 33.9302L45.5265 34.9528C45.3763 35.6583 44.6507 36.1155 43.9049 35.9744L5.10622 28.6037C4.36045 28.4626 3.87711 27.7751 4.02738 27.0697L4.22812 26.1213L6.80185 14L6.84222 14.0074L4.55222 24.7952L4.35148 25.7436C4.20121 26.4491 4.68455 27.1365 5.43031 27.2776L44.229 34.6484C44.8615 34.7683 45.4794 34.4574 45.7441 33.9302ZM49.6759 15.4046L48.5836 20.5497H48.5814L49.6737 15.4046H49.6759ZM50 14.0785L45.8506 33.6268C45.8282 33.7339 45.7912 33.8358 45.7441 33.9302L48.5836 20.5497L48.6229 20.5571L49.9978 14.0785H50Z" fill="#303C44"/>
<path d="M49 15.234L47.621 22L6 13.7671L7.379 7L49 15.234Z" fill="#526471"/>
<path opacity="0.2" d="M49 15.4254L47.621 22L6 14L49 15.4254Z" fill="url(#paint0_linear_153_1763)"/>
<defs>
<linearGradient id="paint0_linear_153_1763" x1="27.5" y1="14" x2="27.5" y2="22" gradientUnits="userSpaceOnUse">
<stop/>
<stop offset="1" stop-color="white" stop-opacity="0"/>
</linearGradient>
</defs>
</svg>
