<svg width="28" height="28" viewBox="0 0 28 28" fill="none" xmlns="http://www.w3.org/2000/svg">
<path d="M27.0508 13.9378C27.0508 6.46712 20.9961 0.412354 13.5254 0.412354C6.05477 0.412354 0 6.46712 0 13.9378C0 20.69 4.94523 26.285 11.4121 27.2994V17.8475H7.97786V13.9378H11.4121V10.958C11.4121 7.56866 13.4304 5.69572 16.5211 5.69572C18.0004 5.69572 19.5485 5.95989 19.5485 5.95989V9.28841H17.842C16.1618 9.28841 15.6388 10.3319 15.6388 11.4018V13.9378H19.3899L18.7903 17.8475H15.6388V27.2994C22.1056 26.285 27.0508 20.69 27.0508 13.9378Z" fill="#1877F2"/>
<path d="M18.7903 17.8475L19.3899 13.9378H15.6388V11.4018C15.6388 10.3319 16.1618 9.28842 17.8419 9.28842H19.5484V5.95989C19.5484 5.95989 18.0004 5.69572 16.5211 5.69572C13.4303 5.69572 11.4121 7.56866 11.4121 10.958V13.9378H7.97784V17.8475H11.4121V27.2994C12.1015 27.4078 12.8069 27.4632 13.5254 27.4632C14.2439 27.4632 14.9493 27.4078 15.6388 27.2994V17.8475H18.7903Z" fill="white"/>
</svg>
