<svg width="51" height="38" viewBox="0 0 51 38" fill="none" xmlns="http://www.w3.org/2000/svg">
<path d="M50.9061 5.11477V32.954C50.9048 34.1595 50.4254 35.3151 49.573 36.1675C48.7207 37.0198 47.565 37.4992 46.3596 37.5005H5.54014C4.80977 37.5016 4.09005 37.3255 3.44274 36.9872C3.19629 36.8592 2.96244 36.7084 2.74426 36.5366C2.19905 36.112 1.75795 35.5686 1.45457 34.9478C1.15119 34.327 0.993548 33.6451 0.993652 32.954V5.11477C0.995039 3.98198 1.41872 2.89039 2.18192 2.05328C2.94512 1.21617 3.99301 0.693675 5.12086 0.58788C5.25898 0.575144 5.39907 0.568287 5.54014 0.568287H46.3596C46.8731 0.567585 47.3829 0.654382 47.8672 0.824952C48.1305 0.917275 48.3844 1.03438 48.6255 1.17468C49.3182 1.57325 49.8937 2.14726 50.2941 2.83895C50.6944 3.53063 50.9055 4.31558 50.9061 5.11477Z" fill="#D61A3A"/>
<path opacity="0.1" d="M6.09136 0.567774L0.99707 9.39657V7.73113L5.12443 0.57953C5.26256 0.566795 5.40265 0.559937 5.54373 0.559937L6.09136 0.567774Z" fill="white"/>
<path opacity="0.1" d="M12.2177 0.568283L0.993652 20.0089V18.3474L11.2586 0.568283H12.2177Z" fill="white"/>
<path opacity="0.1" d="M18.344 0.568283L0.993652 30.6186V28.9571L17.3849 0.568283H18.344Z" fill="white"/>
<path opacity="0.1" d="M24.4695 0.567703L3.44262 36.9866C3.19617 36.8587 2.96232 36.7078 2.74414 36.536L23.5105 0.567703H24.4695Z" fill="white"/>
<path opacity="0.1" d="M30.5963 0.567703L9.27254 37.5H8.31348L29.6372 0.567703H30.5963Z" fill="white"/>
<path opacity="0.1" d="M36.7232 0.567703L15.3995 37.5H14.4404L35.7642 0.567703H36.7232Z" fill="white"/>
<path opacity="0.1" d="M42.8487 0.567703L21.526 37.5H20.5669L41.8896 0.567703H42.8487Z" fill="white"/>
<path opacity="0.1" d="M48.6249 1.17416L27.6519 37.5H26.6929L47.8667 0.824432C48.1299 0.916756 48.3838 1.03386 48.6249 1.17416Z" fill="white"/>
<path opacity="0.1" d="M50.9059 6.17221V7.83465L33.7789 37.5H32.8198L50.9059 6.17221Z" fill="white"/>
<path opacity="0.1" d="M50.9061 16.7835V18.446L39.9054 37.5006H38.9453L50.9061 16.7835Z" fill="white"/>
<path opacity="0.1" d="M50.9057 27.3949V29.0574L46.0309 37.5002H45.0718L50.9057 27.3949Z" fill="white"/>
<path d="M50.9061 24.8446V29.5743C50.9061 29.7692 50.8287 29.9561 50.6909 30.0938C50.5531 30.2316 50.3662 30.309 50.1713 30.309H14.6929V36.8363C14.6929 37.0312 14.6155 37.2181 14.4777 37.3559C14.3399 37.4937 14.153 37.5711 13.9581 37.5711H9.22847C9.03361 37.5711 8.84672 37.4937 8.70894 37.3559C8.57115 37.2181 8.49374 37.0312 8.49374 36.8363V30.309H1.72838C1.53352 30.309 1.34664 30.2316 1.20885 30.0938C1.07106 29.9561 0.993652 29.7692 0.993652 29.5743V24.8446C0.993652 24.6498 1.07106 24.4629 1.20885 24.3251C1.34664 24.1873 1.53352 24.1099 1.72838 24.1099H8.49374V1.30301C8.49374 1.10815 8.57115 0.921268 8.70894 0.78348C8.84672 0.645692 9.03361 0.568283 9.22847 0.568283H13.9581C14.153 0.568283 14.3399 0.645692 14.4777 0.78348C14.6155 0.921268 14.6929 1.10815 14.6929 1.30301V24.1099H50.1713C50.3662 24.1099 50.5531 24.1873 50.6909 24.3251C50.8287 24.4629 50.9061 24.6498 50.9061 24.8446Z" fill="#ED9E20"/>
<path d="M50.9061 24.8446V29.5743C50.9061 29.7692 50.8287 29.9561 50.6909 30.0938C50.5531 30.2316 50.3662 30.309 50.1713 30.309H14.6929V36.8363C14.6929 37.0312 14.6155 37.2181 14.4777 37.3559C14.3399 37.4937 14.153 37.5711 13.9581 37.5711H9.22847C9.03361 37.5711 8.84672 37.4937 8.70894 37.3559C8.57115 37.2181 8.49374 37.0312 8.49374 36.8363V30.309H1.72838C1.53352 30.309 1.34664 30.2316 1.20885 30.0938C1.07106 29.9561 0.993652 29.7692 0.993652 29.5743V24.8446C0.993652 24.6498 1.07106 24.4629 1.20885 24.3251C1.34664 24.1873 1.53352 24.1099 1.72838 24.1099H8.49374V1.30301C8.49374 1.10815 8.57115 0.921268 8.70894 0.78348C8.84672 0.645692 9.03361 0.568283 9.22847 0.568283H13.9581C14.153 0.568283 14.3399 0.645692 14.4777 0.78348C14.6155 0.921268 14.6929 1.10815 14.6929 1.30301V24.1099H50.1713C50.3662 24.1099 50.5531 24.1873 50.6909 24.3251C50.8287 24.4629 50.9061 24.6498 50.9061 24.8446Z" stroke="black"/>
<path d="M26.8139 17.391C25.8267 17.7392 24.7886 17.921 23.7418 17.9289C22.1283 17.9289 20.9107 17.5184 20.0045 16.6553C19.1551 15.8481 18.6595 14.5883 18.6741 13.1443C18.6741 10.129 20.8293 8.18933 23.9828 8.18933C25.1584 8.18933 26.0782 8.43032 26.5171 8.64192L26.135 10.0438C25.6109 9.81748 24.9703 9.62939 23.9691 9.62939C21.9305 9.62939 20.5012 10.8324 20.5012 13.0581C20.5012 15.2241 21.8315 16.5123 23.8133 16.5123C24.4364 16.5123 24.9036 16.4271 25.1299 16.3164V13.9398H23.445V12.5683H26.8139V17.391ZM30.3387 8.28827V17.8289H28.5949V8.28827H30.3387ZM32.3342 8.28827H37.8407V9.71756H34.076V12.3508H37.587V13.7801H34.076V17.8289H32.3342V8.28827ZM41.3654 9.74695H38.6479V8.28827H45.8531V9.74695H43.1102V17.8299H41.3654V9.74695Z" fill="white"/>
</svg>
