<svg width="80" height="80" viewBox="0 0 80 80" fill="none" xmlns="http://www.w3.org/2000/svg">
<circle cx="40" cy="40" r="40" fill="#CA0F0F"/>
<path fill-rule="evenodd" clip-rule="evenodd" d="M21.0023 27.4286H59.877C60.6067 27.4286 61.1781 28.0528 61.4858 28.7033C61.7759 29.3275 62.2858 29.8286 62.9012 30.1187C63.5517 30.4264 64.1759 30.9978 64.1759 31.7275V49.3275C64.1759 50.0572 63.5517 50.6198 62.9012 50.9363C62.2858 51.2264 61.7847 51.7275 61.4858 52.3517C61.1781 53.0022 60.6067 53.6264 59.877 53.6264H21.0023C20.2726 53.6264 19.7012 53.0022 19.3935 52.3517C19.1034 51.7275 18.5935 51.2264 17.9781 50.9363C17.3275 50.6198 16.7034 50.0572 16.7034 49.3275V31.7275C16.7034 30.9978 17.3275 30.4264 17.9781 30.1187C18.5985 29.8236 19.0984 29.3238 19.3935 28.7033C19.7012 28.0528 20.2726 27.4286 21.0023 27.4286Z" fill="#F5E680"/>
<path fill-rule="evenodd" clip-rule="evenodd" d="M52.3693 38.0748C53.055 38.0748 53.5825 38.6023 53.5825 39.288V41.6001C53.5825 42.2858 53.055 42.8133 52.3693 42.8133C51.6836 42.8133 51.1561 42.2858 51.1561 41.6001V39.288C51.1561 38.6023 51.6836 38.0748 52.3693 38.0748ZM44.6594 38.0748H46.0221C46.4704 38.0748 46.8045 38.4089 46.8045 38.866C46.8045 39.3231 46.4704 39.6484 46.0221 39.6484H44.6594V38.0748ZM27.5605 38.0748C28.0441 38.0748 28.4133 38.444 28.4133 38.9275V39.6484H26.7078V38.9275C26.7078 38.444 27.077 38.0748 27.5605 38.0748ZM23.2353 36.7297C22.7517 36.7297 22.3561 37.1253 22.3561 37.6089V41.9957C22.3561 42.5495 21.9342 42.9803 21.3627 42.9803C20.7913 42.9803 20.3693 42.5495 20.3693 41.9957V41.1869C20.3693 40.7034 19.9737 40.3078 19.4902 40.3078C19.0067 40.3078 18.6111 40.7034 18.6111 41.1869V41.9957C18.6111 43.499 19.8506 44.7385 21.3627 44.7385C22.8748 44.7385 24.1144 43.499 24.1144 41.9957V37.6089C24.1144 37.1253 23.7188 36.7297 23.2353 36.7297ZM59.2353 36.3165H57.0638C56.5803 36.3165 56.1847 36.7122 56.1847 37.1957C56.1847 37.6792 56.5803 38.0748 57.0638 38.0748H58.3561V43.8594C58.3561 44.3429 58.7517 44.7385 59.2353 44.7385C59.7188 44.7385 60.1144 44.3429 60.1144 43.8594V38.0748H61.4155C61.899 38.0748 62.2946 37.6792 62.2946 37.1957C62.2946 36.7122 61.899 36.3165 61.4155 36.3165H59.2353ZM52.3781 36.3165C50.7517 36.3165 49.4067 37.6616 49.4067 39.288V41.6001C49.4067 43.2264 50.743 44.5715 52.3781 44.5715C54.0133 44.5715 55.3495 43.2264 55.3495 41.6001V39.288C55.3495 37.6528 54.0133 36.3165 52.3781 36.3165ZM43.7891 36.3165C43.3056 36.3165 42.91 36.7122 42.91 37.1957V43.8594C42.91 44.3429 43.3056 44.7385 43.7891 44.7385C44.2726 44.7385 44.6682 44.3429 44.6682 43.8594V41.4067H46.0309C47.4287 41.4067 48.5715 40.255 48.5715 38.866C48.5715 37.477 47.4199 36.3165 46.0309 36.3165H43.7891ZM38.0572 36.3165C37.5737 36.3165 37.1781 36.7122 37.1781 37.1957V43.8594C37.1781 44.3429 37.5737 44.7385 38.0572 44.7385C38.5408 44.7385 38.9364 44.3429 38.9364 43.8594V42.5407L40.5979 44.088C40.9495 44.4133 41.5122 44.3957 41.8375 44.044C41.9869 43.877 42.0748 43.666 42.0748 43.4462C42.0748 43.2001 41.9693 42.9627 41.7935 42.7957L39.3408 40.5275L41.7935 38.2594C41.9693 38.0924 42.0748 37.855 42.0748 37.6089C42.0748 37.3891 41.9869 37.1781 41.8375 37.0111C41.6792 36.844 41.4594 36.7473 41.2309 36.7385C40.9935 36.7385 40.7737 36.8089 40.5979 36.9671L38.9364 38.5144V37.1957C38.9364 36.7122 38.5408 36.3165 38.0572 36.3165ZM33.9869 36.3165C32.3517 36.3165 31.0155 37.6616 31.0155 39.288V41.6001C31.0155 43.2264 32.3517 44.5715 33.9869 44.5715C34.8045 44.5715 35.5517 44.2374 36.088 43.7012C36.4309 43.3583 36.4309 42.7957 36.088 42.4528C35.7451 42.1187 35.1825 42.1187 34.8484 42.4528C34.6287 42.6726 34.3298 42.8133 33.9869 42.8133C33.3012 42.8133 32.7737 42.2858 32.7737 41.6001V39.288C32.7737 38.6023 33.3012 38.0748 33.9869 38.0748C34.3298 38.0748 34.6287 38.2067 34.8484 38.4264C35.1913 38.7693 35.7539 38.7693 36.088 38.4264C36.1695 38.3451 36.2342 38.2485 36.2783 38.1422C36.3224 38.0358 36.3451 37.9218 36.3451 37.8067C36.3451 37.6915 36.3224 37.5775 36.2783 37.4712C36.2342 37.3648 36.1695 37.2682 36.088 37.1869C35.5308 36.6296 34.775 36.3166 33.9869 36.3165ZM27.5693 36.3165C26.1364 36.3165 24.9583 37.4946 24.9583 38.9275V43.8594C24.9583 44.3429 25.3539 44.7385 25.8375 44.7385C26.321 44.7385 26.7166 44.3429 26.7166 43.8594V41.4067H28.4221V43.8594C28.4221 44.3429 28.8177 44.7385 29.3012 44.7385C29.7847 44.7385 30.1803 44.3429 30.1803 43.8594V38.9275C30.1803 37.4946 29.0023 36.3165 27.5693 36.3165ZM35.7627 31.4902C35.6401 31.6129 35.5566 31.7694 35.523 31.9397C35.4895 32.11 35.5073 32.2864 35.5741 32.4465C35.641 32.6067 35.754 32.7434 35.8987 32.8392C36.0434 32.935 36.2134 32.9856 36.3869 32.9847C36.5605 32.9856 36.7304 32.935 36.8751 32.8392C37.0198 32.7434 37.1328 32.6067 37.1997 32.4465C37.2666 32.2864 37.2843 32.11 37.2508 31.9397C37.2172 31.7694 37.1338 31.6129 37.0111 31.4902C36.844 31.3231 36.6243 31.2264 36.3869 31.2264C36.1495 31.2264 35.9298 31.3231 35.7627 31.4902ZM39.8155 31.4902C39.6928 31.6129 39.6094 31.7694 39.5758 31.9397C39.5422 32.11 39.56 32.2864 39.6269 32.4465C39.6938 32.6067 39.8067 32.7434 39.9515 32.8392C40.0962 32.935 40.2661 32.9856 40.4397 32.9847C40.6132 32.9856 40.7831 32.935 40.9278 32.8392C41.0726 32.7434 41.1855 32.6067 41.2524 32.4465C41.3193 32.2864 41.3371 32.11 41.3035 31.9397C41.2699 31.7694 41.1865 31.6129 41.0638 31.4902C40.8968 31.3231 40.677 31.2264 40.4397 31.2264C40.2023 31.2264 39.9825 31.3231 39.8155 31.4902ZM43.8682 31.4902C43.7455 31.6129 43.6621 31.7694 43.6285 31.9397C43.595 32.11 43.6127 32.2864 43.6796 32.4465C43.7465 32.6067 43.8595 32.7434 44.0042 32.8392C44.1489 32.935 44.3188 32.9856 44.4924 32.9847C44.666 32.9856 44.8359 32.935 44.9806 32.8392C45.1253 32.7434 45.2383 32.6067 45.3052 32.4465C45.3721 32.2864 45.3898 32.11 45.3563 31.9397C45.3227 31.7694 45.2393 31.6129 45.1166 31.4902C44.9495 31.3231 44.7298 31.2264 44.4924 31.2264C44.255 31.2264 44.0353 31.3231 43.8682 31.4902Z" fill="#E6A361"/>
<path fill-rule="evenodd" clip-rule="evenodd" d="M32.4923 31.2264L27.9824 31.244C27.4989 31.244 27.1033 31.6396 27.1033 32.1231C27.1033 32.6067 27.4989 33.0023 27.9824 33.0023L32.4923 32.9847C32.9758 32.9847 33.3714 32.5891 33.3714 32.1056C33.3714 31.622 32.9758 31.2264 32.4923 31.2264ZM52.8967 31.2264L48.3868 31.244C47.9033 31.244 47.5077 31.6396 47.5077 32.1231C47.5077 32.6067 47.9033 33.0023 48.3868 33.0023L52.8967 32.9847C53.3802 32.9847 53.7758 32.5891 53.7758 32.1056C53.7758 31.622 53.3802 31.2264 52.8967 31.2264Z" fill="#F9F3C7"/>
<path fill-rule="evenodd" clip-rule="evenodd" d="M35.7627 48.3252C35.6812 48.4065 35.6166 48.5031 35.5724 48.6095C35.5283 48.7158 35.5056 48.8299 35.5056 48.945C35.5056 49.0601 35.5283 49.1741 35.5724 49.2805C35.6166 49.3868 35.6812 49.4834 35.7627 49.5648C35.9297 49.7318 36.1495 49.8285 36.3869 49.8285C36.6242 49.8285 36.844 49.7318 37.0111 49.5648C37.1337 49.442 37.2172 49.2855 37.2507 49.1153C37.2843 48.945 37.2665 48.7686 37.1997 48.6084C37.1328 48.4483 37.0198 48.3116 36.8751 48.2158C36.7304 48.12 36.5604 48.0693 36.3869 48.0703C36.1495 48.0703 35.9297 48.1582 35.7627 48.3252ZM39.8155 48.3252C39.734 48.4065 39.6693 48.5031 39.6252 48.6095C39.5811 48.7158 39.5584 48.8299 39.5584 48.945C39.5584 49.0601 39.5811 49.1741 39.6252 49.2805C39.6693 49.3868 39.734 49.4834 39.8155 49.5648C39.9825 49.7318 40.2023 49.8285 40.4396 49.8285C40.677 49.8285 40.8968 49.7318 41.0638 49.5648C41.1865 49.442 41.2699 49.2855 41.3035 49.1153C41.3371 48.945 41.3193 48.7686 41.2524 48.6084C41.1855 48.4483 41.0725 48.3116 40.9278 48.2158C40.7831 48.12 40.6132 48.0693 40.4396 48.0703C40.2023 48.0703 39.9825 48.1582 39.8155 48.3252ZM43.8682 48.3252C43.7867 48.4065 43.722 48.5031 43.6779 48.6095C43.6338 48.7158 43.6111 48.8299 43.6111 48.945C43.6111 49.0601 43.6338 49.1741 43.6779 49.2805C43.722 49.3868 43.7867 49.4834 43.8682 49.5648C44.0352 49.7318 44.255 49.8285 44.4924 49.8285C44.7297 49.8285 44.9495 49.7318 45.1166 49.5648C45.2392 49.442 45.3227 49.2855 45.3562 49.1153C45.3898 48.945 45.372 48.7686 45.3051 48.6084C45.2383 48.4483 45.1253 48.3116 44.9806 48.2158C44.8359 48.12 44.6659 48.0693 44.4924 48.0703C44.255 48.0703 44.0352 48.1582 43.8682 48.3252Z" fill="#E6A361"/>
<path fill-rule="evenodd" clip-rule="evenodd" d="M32.4923 48.0704H27.9824C27.4989 48.0792 27.1033 48.4748 27.1033 48.9583C27.1033 49.4418 27.4989 49.8374 27.9824 49.8374H32.5011C32.9846 49.8198 33.3802 49.4242 33.3802 48.9407C33.3779 48.7091 33.2842 48.4877 33.1196 48.3247C32.955 48.1618 32.7327 48.0704 32.5011 48.0704H32.4923ZM52.8967 48.0704H48.3868C47.9033 48.0792 47.5077 48.4748 47.5077 48.9583C47.5077 49.4418 47.9033 49.8374 48.3868 49.8374H52.9055C53.389 49.8198 53.7846 49.4242 53.7846 48.9407C53.7823 48.7091 53.6886 48.4877 53.524 48.3247C53.3594 48.1618 53.1371 48.0704 52.9055 48.0704H52.8967ZM40.4395 19.3407C39.956 19.3407 39.5604 19.7363 39.5604 20.2198V22.3649C39.5604 22.8484 39.956 23.244 40.4395 23.244C40.9231 23.244 41.3187 22.8484 41.3187 22.3649V20.2198C41.3187 19.7363 40.9231 19.3407 40.4395 19.3407ZM31.9648 21.4945C31.7362 21.5033 31.5165 21.6176 31.367 21.7934C31.0505 22.1539 31.0945 22.7165 31.4549 23.033L33.3274 24.6506C33.6967 24.9671 34.2505 24.9319 34.567 24.5627C34.8835 24.2022 34.8395 23.6396 34.4791 23.3231L32.6066 21.7055C32.5196 21.6285 32.4179 21.57 32.3075 21.5337C32.1971 21.4974 32.0805 21.4841 31.9648 21.4945ZM48.9231 21.4945C48.8074 21.4855 48.6912 21.4994 48.581 21.5357C48.4708 21.5719 48.369 21.6296 48.2813 21.7055L46.4 23.3231C46.0395 23.6396 45.9956 24.2022 46.3121 24.5627C46.6285 24.9319 47.1824 24.9671 47.5516 24.6506L49.4329 23.033C49.7934 22.7165 49.8373 22.1539 49.5209 21.7934C49.447 21.7054 49.3558 21.6334 49.2529 21.582C49.1501 21.5306 49.0378 21.5008 48.9231 21.4945ZM40.4395 57.811C39.956 57.811 39.5604 58.2066 39.5604 58.6902V60.8352C39.5604 61.3187 39.956 61.7143 40.4395 61.7143C40.9231 61.7143 41.3187 61.3187 41.3187 60.8352V58.6902C41.3187 58.2066 40.9231 57.811 40.4395 57.811ZM33.9604 56.1847C33.7318 56.1759 33.5033 56.2462 33.3187 56.4044L31.4461 58.022C31.0857 58.3385 31.0417 58.9011 31.3582 59.2616C31.6747 59.6308 32.2285 59.666 32.5978 59.3495L34.4703 57.7319C34.8395 57.4154 34.8747 56.8528 34.5582 56.4923C34.4088 56.3165 34.189 56.2022 33.9604 56.1847ZM46.9187 56.1847C46.7456 56.1992 46.5807 56.2644 46.4445 56.372C46.3082 56.4795 46.2066 56.6248 46.1522 56.7897C46.0979 56.9546 46.0932 57.1319 46.1388 57.2994C46.1845 57.4669 46.2783 57.6173 46.4088 57.7319L48.2901 59.3495C48.6505 59.666 49.2132 59.6308 49.5296 59.2616C49.8461 58.9011 49.8022 58.3385 49.4417 58.022L47.5604 56.4044C47.3846 56.2462 47.156 56.1759 46.9187 56.1847Z" fill="#F9F3C7"/>
</svg>
