<svg width="17" height="17" viewBox="0 0 17 17" fill="none" xmlns="http://www.w3.org/2000/svg">
<path d="M8.50063 9.33922e-08C6.89181 -0.000238358 5.31596 0.456143 3.95626 1.31609C2.59656 2.17605 1.50886 3.40425 0.819581 4.85793C0.130304 6.31162 -0.132232 7.93108 0.0624883 9.52807C0.257209 11.1251 0.901189 12.634 1.91957 13.8795L0.250296 15.5479C0.131467 15.6668 0.0505475 15.8182 0.0177675 15.983C-0.0150124 16.1479 0.00181887 16.3187 0.0661336 16.474C0.130448 16.6293 0.239359 16.762 0.379097 16.8554C0.518835 16.9488 0.683126 16.9987 0.851201 16.9987H8.50063C10.7548 16.9987 12.9167 16.1033 14.5106 14.5093C16.1045 12.9154 17 10.7535 17 8.49937C17 6.2452 16.1045 4.08335 14.5106 2.48941C12.9167 0.895467 10.7548 9.33922e-08 8.50063 9.33922e-08ZM5.10089 9.3493C4.93278 9.3493 4.76846 9.29946 4.62869 9.20606C4.48891 9.11267 4.37998 8.97993 4.31565 8.82463C4.25132 8.66932 4.23449 8.49843 4.26728 8.33355C4.30008 8.16868 4.38102 8.01724 4.49989 7.89837C4.61876 7.77951 4.7702 7.69856 4.93507 7.66576C5.09994 7.63297 5.27084 7.6498 5.42614 7.71413C5.58145 7.77846 5.71419 7.8874 5.80758 8.02717C5.90097 8.16694 5.95082 8.33127 5.95082 8.49937C5.95082 8.72478 5.86128 8.94097 5.70188 9.10036C5.54249 9.25976 5.3263 9.3493 5.10089 9.3493ZM8.50063 9.3493C8.33253 9.3493 8.1682 9.29946 8.02843 9.20606C7.88866 9.11267 7.77972 8.97993 7.71539 8.82463C7.65106 8.66932 7.63423 8.49843 7.66703 8.33355C7.69982 8.16868 7.78077 8.01724 7.89964 7.89837C8.0185 7.77951 8.16995 7.69856 8.33482 7.66576C8.49969 7.63297 8.67058 7.6498 8.82589 7.71413C8.98119 7.77846 9.11394 7.8874 9.20733 8.02717C9.30072 8.16694 9.35057 8.33127 9.35057 8.49937C9.35057 8.72478 9.26102 8.94097 9.10163 9.10036C8.94223 9.25976 8.72605 9.3493 8.50063 9.3493ZM11.9004 9.3493C11.7323 9.3493 11.568 9.29946 11.4282 9.20606C11.2884 9.11267 11.1795 8.97993 11.1151 8.82463C11.0508 8.66932 11.034 8.49843 11.0668 8.33355C11.0996 8.16868 11.1805 8.01724 11.2994 7.89837C11.4182 7.77951 11.5697 7.69856 11.7346 7.66576C11.8994 7.63297 12.0703 7.6498 12.2256 7.71413C12.3809 7.77846 12.5137 7.8874 12.6071 8.02717C12.7005 8.16694 12.7503 8.33127 12.7503 8.49937C12.7503 8.72478 12.6608 8.94097 12.5014 9.10036C12.342 9.25976 12.1258 9.3493 11.9004 9.3493Z" fill="white"/>
</svg>
