<svg width="17" height="13" viewBox="0 0 17 13" fill="none" xmlns="http://www.w3.org/2000/svg">
<path d="M16.7069 4.98284C16.6178 4.93139 16.5167 4.9043 16.4138 4.9043C16.3109 4.9043 16.2098 4.93139 16.1207 4.98284L8.49999 9.29145L0.879314 4.98284C0.790028 4.93129 0.688726 4.9042 0.585627 4.9043C0.482528 4.9044 0.38128 4.93169 0.292096 4.98342C0.202912 5.03514 0.128948 5.10948 0.0776649 5.19892C0.0263819 5.28835 -0.000405605 5.38974 4.64225e-06 5.49284V10.5518C4.64225e-06 11.0182 0.185287 11.4655 0.515092 11.7953C0.844897 12.1251 1.29221 12.3104 1.75862 12.3104H15.2414C15.7078 12.3104 16.1551 12.1251 16.4849 11.7953C16.8147 11.4655 17 11.0182 17 10.5518V5.49577C17.0009 5.39198 16.9743 5.2898 16.9228 5.19968C16.8713 5.10956 16.7968 5.03473 16.7069 4.98284Z" fill="white"/>
<path d="M15.2414 0H1.75862C1.29221 0 0.844897 0.185282 0.515092 0.515087C0.185287 0.844892 4.62099e-06 1.2922 4.62099e-06 1.75862V2.85775C-0.00040547 2.96105 0.0264864 3.06262 0.0779572 3.15218C0.129428 3.24174 0.20365 3.31611 0.293108 3.36775L8.20689 7.83757C8.296 7.88903 8.39709 7.91611 8.49999 7.91611C8.60289 7.91611 8.70398 7.88903 8.79309 7.83757L16.7069 3.36775C16.7963 3.31611 16.8706 3.24174 16.922 3.15218C16.9735 3.06262 17.0004 2.96105 17 2.85775V1.75862C17 1.2922 16.8147 0.844892 16.4849 0.515087C16.1551 0.185282 15.7078 0 15.2414 0Z" fill="white"/>
</svg>
