<svg width="17" height="17" viewBox="0 0 17 17" fill="none" xmlns="http://www.w3.org/2000/svg">
<path fill-rule="evenodd" clip-rule="evenodd" d="M16.6945 14.7289C16.1697 16.3235 14.1138 17.1191 12.645 16.9865C10.639 16.8052 8.4562 15.7409 6.79926 14.5691C4.3637 12.8464 2.08229 10.1819 0.752875 7.35421C-0.186665 5.35613 -0.397467 2.89904 0.999944 1.07776C1.51675 0.404555 2.07662 0.0452859 2.91529 0.00335219C4.08037 -0.0533149 4.24357 0.61309 4.64364 1.65123C4.94171 2.42757 5.33951 3.21978 5.56165 4.02445C5.97758 5.52613 4.52351 5.58846 4.3399 6.81587C4.22657 7.58995 5.16384 8.62809 5.58771 9.18003C6.40472 10.255 7.40538 11.177 8.54347 11.9034C9.18948 12.3103 10.2299 13.0436 10.9688 12.639C12.1067 12.0156 12.0002 10.0969 13.5902 10.7463C14.4142 11.0818 15.2121 11.5657 15.9986 11.9896C17.2147 12.6435 17.158 13.3213 16.6945 14.7289C17.0413 13.6771 16.3477 15.7806 16.6945 14.7289Z" fill="white"/>
</svg>
