<svg width="80" height="81" viewBox="0 0 80 81" fill="none" xmlns="http://www.w3.org/2000/svg">
<mask id="mask0_153_1013" style="mask-type:alpha" maskUnits="userSpaceOnUse" x="0" y="0" width="80" height="81">
<path d="M0 80.025V0H80V80.025H0Z" fill="white"/>
</mask>
<g mask="url(#mask0_153_1013)">
<path fill-rule="evenodd" clip-rule="evenodd" d="M-0.074707 39.9872C-0.074707 62.0992 17.8508 80.0248 39.9628 80.0248C62.0748 80.0248 80.0004 62.0992 80.0004 39.9872C80.0004 17.8753 62.0748 -0.050293 39.9628 -0.050293C17.8508 -0.050293 -0.074707 17.8753 -0.074707 39.9872Z" fill="#4C5665"/>
<path fill-rule="evenodd" clip-rule="evenodd" d="M62.4448 61.2962C62.3109 61.2962 62.1871 61.2675 62.0569 61.2575H22.8339C22.7038 61.2675 22.5787 61.2962 22.4461 61.2962C21.1085 61.2962 19.8256 60.7649 18.8798 59.819C17.934 58.8732 17.4026 57.5904 17.4026 56.2528C17.4026 56.1201 17.4314 55.995 17.4414 55.8649V55.6284C17.5752 55.7048 17.7129 55.7761 17.8543 55.8399C18.2999 56.8194 19.0471 57.6307 19.9867 58.1552C20.9263 58.6797 22.009 58.8899 23.0767 58.7551H61.813C62.5223 58.8447 63.2427 58.7824 63.9261 58.5724C64.6096 58.3624 65.2406 58.0095 65.7773 57.537C66.314 57.0646 66.7441 56.4834 67.0391 55.8321C67.3341 55.1808 67.4872 54.4742 67.4883 53.7592V53.7504V56.2528C67.4876 57.5902 66.956 58.8726 66.0104 59.8183C65.0647 60.764 63.7822 61.2956 62.4448 61.2962Z" fill="#414A55"/>
<path fill-rule="evenodd" clip-rule="evenodd" d="M22.4461 57.5038C20.3767 57.5038 18.6926 55.8197 18.6926 53.7503V33.7315C18.6926 31.662 20.3767 29.978 22.4461 29.978H62.4837C64.5531 29.978 66.2372 31.662 66.2372 33.7315V53.7503C66.2372 55.8197 64.5531 57.5038 62.4837 57.5038H22.4461Z" fill="#73BBA3"/>
<path fill-rule="evenodd" clip-rule="evenodd" d="M62.4836 28.7272H22.4461C21.1188 28.7272 19.8458 29.2545 18.9072 30.1931C17.9687 31.1316 17.4414 32.4046 17.4414 33.7319V53.7507C17.4414 55.078 17.9687 56.351 18.9072 57.2895C19.8458 58.2281 21.1188 58.7554 22.4461 58.7554H62.4836C63.811 58.7554 65.0839 58.2281 66.0225 57.2895C66.961 56.351 67.4883 55.078 67.4883 53.7507V33.7319C67.4883 32.4046 66.961 31.1316 66.0225 30.1931C65.0839 29.2545 63.811 28.7272 62.4836 28.7272ZM62.4836 31.2296C63.8637 31.2296 64.986 32.3519 64.986 33.7319V53.7507C64.986 55.1307 63.8637 56.253 62.4836 56.253H22.4461C21.0661 56.253 19.9438 55.1307 19.9438 53.7507V33.7319C19.9438 32.3519 21.0661 31.2296 22.4461 31.2296H62.4836Z" fill="#DEDECA"/>
<path fill-rule="evenodd" clip-rule="evenodd" d="M49.9716 43.7407C49.9716 45.7317 49.1807 47.6412 47.7728 49.049C46.365 50.4569 44.4555 51.2478 42.4646 51.2478C40.4736 51.2478 38.5641 50.4569 37.1563 49.049C35.7484 47.6412 34.9575 45.7317 34.9575 43.7407C34.9575 41.7498 35.7484 39.8403 37.1563 38.4325C38.5641 37.0246 40.4736 36.2337 42.4646 36.2337C44.4555 36.2337 46.365 37.0246 47.7728 38.4325C49.1807 39.8403 49.9716 41.7498 49.9716 43.7407Z" fill="#4C5665"/>
<path fill-rule="evenodd" clip-rule="evenodd" d="M57.4001 33.7707C57.4001 35.1083 57.9314 36.3912 58.8773 37.337C59.8231 38.2828 61.1059 38.8142 62.4436 38.8142C63.7812 38.8142 65.064 38.2828 66.0098 37.337C66.9557 36.3912 67.487 35.1083 67.487 33.7707C67.487 32.4331 66.9557 31.1503 66.0098 30.2044C65.064 29.2586 63.7812 28.7272 62.4436 28.7272C61.1059 28.7272 59.8231 29.2586 58.8773 30.2044C57.9314 31.1503 57.4001 32.4331 57.4001 33.7707ZM17.4026 33.7707C17.4026 35.1082 17.9339 36.3908 18.8796 37.3366C19.8253 38.2823 21.108 38.8136 22.4454 38.8136C23.7829 38.8136 25.0656 38.2823 26.0113 37.3366C26.957 36.3908 27.4883 35.1082 27.4883 33.7707C27.4883 32.4333 26.957 31.1506 26.0113 30.2049C25.0656 29.2592 23.7829 28.7279 22.4454 28.7279C21.108 28.7279 19.8253 29.2592 18.8796 30.2049C17.9339 31.1506 17.4026 32.4333 17.4026 33.7707ZM57.4001 53.7507C57.3896 54.4198 57.5124 55.0843 57.7612 55.7055C58.0101 56.3266 58.38 56.8921 58.8495 57.3689C59.319 57.8458 59.8787 58.2244 60.4959 58.4828C61.1132 58.7413 61.7757 58.8743 62.4448 58.8743C63.114 58.8742 63.7765 58.741 64.3936 58.4824C65.0108 58.2238 65.5704 57.845 66.0398 57.368C66.5092 56.8911 66.8789 56.3255 67.1276 55.7043C67.3763 55.083 67.4989 54.4185 67.4883 53.7495C67.4673 52.4254 66.9265 51.1628 65.9827 50.2339C65.0389 49.3051 63.7678 48.7846 62.4436 48.7848C61.1194 48.785 59.8484 49.3058 58.9048 50.2348C57.9612 51.1639 57.4208 52.4267 57.4001 53.7507ZM17.4026 53.7507C17.4026 55.0885 17.934 56.3715 18.88 57.3174C19.8259 58.2634 21.1089 58.7948 22.4467 58.7948C23.7845 58.7948 25.0675 58.2634 26.0134 57.3174C26.9594 56.3715 27.4908 55.0885 27.4908 53.7507C27.4908 52.4129 26.9594 51.1299 26.0134 50.184C25.0675 49.238 23.7845 48.7066 22.4467 48.7066C21.1089 48.7066 19.8259 49.238 18.88 50.184C17.934 51.1299 17.4026 52.4129 17.4026 53.7507Z" fill="#DEDECA"/>
<path fill-rule="evenodd" clip-rule="evenodd" d="M55.0743 52.4992H27.3333C27.1457 51.7689 26.7971 51.0899 26.313 50.5119C25.8289 49.9338 25.2216 49.4714 24.5357 49.1586C24.1345 48.2774 23.4883 47.5303 22.6741 47.0064C21.8598 46.4826 20.912 46.2043 19.9438 46.2045V38.1507C20.9079 38.7038 22.0277 38.9228 23.129 38.7738C24.2304 38.6247 25.2517 38.116 26.0341 37.3266C26.8165 36.5372 27.3161 35.5114 27.4554 34.4088C27.5946 33.3061 27.3656 32.1883 26.804 31.2292H54.8991L54.8979 31.268C54.8979 33.3087 56.1103 35.0653 57.8531 35.8598C58.1687 36.5521 58.6365 37.1641 59.2217 37.6502C59.8068 38.1364 60.4942 38.4841 61.2326 38.6675V46.3922C60.8126 46.2736 60.3789 46.2105 59.9426 46.2045C58.6049 46.2045 57.3219 46.7359 56.3759 47.6817C55.4298 48.6275 54.8982 49.9103 54.8979 51.248C54.8979 51.6822 54.9704 52.0976 55.0743 52.4992ZM36.0539 47.6496C36.646 48.6189 37.4503 49.4412 38.4062 50.0546C39.3622 50.668 40.4448 51.0564 41.5727 51.1907C42.7005 51.325 43.8441 51.2017 44.9173 50.8299C45.9906 50.4582 46.9655 49.8478 47.7686 49.0446C48.5717 48.2415 49.1822 47.2666 49.5539 46.1934C49.9256 45.1201 50.049 43.9765 49.9147 42.8487C49.7804 41.7209 49.3919 40.6382 48.7786 39.6823C48.1652 38.7263 47.3429 37.922 46.3736 37.33C45.7816 36.3607 44.9773 35.5384 44.0213 34.925C43.0654 34.3117 41.9827 33.9232 40.8549 33.7889C39.7271 33.6546 38.5835 33.7779 37.5102 34.1497C36.437 34.5214 35.4621 35.1318 34.659 35.935C33.8558 36.7381 33.2454 37.713 32.8737 38.7863C32.5019 39.8595 32.3786 41.0031 32.5129 42.1309C32.6472 43.2588 33.0356 44.3414 33.649 45.2973C34.2624 46.2533 35.0847 47.0576 36.0539 47.6496Z" fill="#629986"/>
<path fill-rule="evenodd" clip-rule="evenodd" d="M18.6926 46.3796V37.1397C19.0517 37.5401 19.4746 37.8816 19.9438 38.1506V46.2044C19.5096 46.2044 19.0955 46.2757 18.6926 46.3796ZM54.8991 31.2291H26.804C26.5287 30.7587 26.1784 30.3358 25.7718 29.978H55.0855C54.9711 30.3856 54.9085 30.8059 54.8991 31.2291Z" fill="#B3B2A4"/>
<path fill-rule="evenodd" clip-rule="evenodd" d="M42.465 51.2482C41.1774 51.2489 39.9113 50.9182 38.7886 50.288C37.6658 49.6578 36.724 48.7493 36.054 47.6498C37.4914 48.5279 39.1823 48.897 40.8549 48.6978C42.5275 48.4986 44.0845 47.7427 45.2755 46.5517C46.4666 45.3607 47.2224 43.8037 47.4216 42.1311C47.6208 40.4585 47.2517 38.7676 46.3736 37.3301C47.7722 38.1822 48.8538 39.4682 49.4535 40.9921C50.0532 42.516 50.1381 44.1942 49.6954 45.7709C49.2526 47.3475 48.3064 48.7362 47.001 49.725C45.6956 50.7139 44.1026 51.2488 42.465 51.2482Z" fill="#414A55"/>
<path fill-rule="evenodd" clip-rule="evenodd" d="M61.2325 38.6674C60.4942 38.484 59.8068 38.1363 59.2216 37.6501C58.6365 37.164 58.1687 36.552 57.8531 35.8597C58.509 36.159 59.2216 36.3135 59.9426 36.3127C60.3905 36.3127 60.8184 36.2351 61.2325 36.125V38.6674ZM22.4461 38.8138C21.7377 38.8159 21.0369 38.6678 20.3899 38.3792C19.7429 38.0907 19.1644 37.6682 18.6926 37.1397V36.1362C19.0955 36.2401 19.5096 36.3127 19.9438 36.3127C21.2815 36.3123 22.5644 35.7807 23.5102 34.8346C24.456 33.8886 24.9873 32.6057 24.9873 31.2679C24.9873 30.82 24.9097 30.3921 24.7996 29.978H25.7718C26.3122 30.4509 26.7451 31.034 27.0414 31.6881C27.3377 32.3422 27.4905 33.0522 27.4896 33.7703C27.4898 34.4326 27.3594 35.0885 27.106 35.7005C26.8526 36.3125 26.4812 36.8686 26.0128 37.3369C25.5444 37.8053 24.9884 38.1768 24.3764 38.4302C23.7644 38.6836 23.1085 38.8139 22.4461 38.8138ZM27.3332 52.4991H24.8121C24.916 52.0975 24.9873 51.6821 24.9873 51.2479C24.9873 50.5022 24.8259 49.7953 24.5356 49.1585C25.2216 49.4713 25.8289 49.9337 26.313 50.5117C26.797 51.0898 27.1457 51.7688 27.3332 52.4991Z" fill="#B3B2A4"/>
<path fill-rule="evenodd" clip-rule="evenodd" d="M17.4413 55.6284C16.6689 55.1873 16.027 54.5498 15.5807 53.7804C15.1344 53.0111 14.8996 52.1374 14.9001 51.248C14.9001 51.1154 14.9289 50.9903 14.9389 50.8601V31.6559C14.9289 31.5258 14.9001 31.4019 14.9001 31.268C14.9008 29.9306 15.4324 28.6482 16.3781 27.7025C17.3238 26.7568 18.6062 26.2252 19.9436 26.2245H59.9812C60.9443 26.2245 61.887 26.5023 62.6962 27.0247C63.5054 27.5472 64.1466 28.292 64.5429 29.1698C63.896 28.8766 63.1938 28.7256 62.4835 28.7269H22.4372C21.7222 28.728 21.0156 28.8811 20.3643 29.1761C19.713 29.4711 19.1318 29.9012 18.6594 30.4379C18.1869 30.9746 17.834 31.6056 17.624 32.2891C17.414 32.9725 17.3517 33.6928 17.4413 34.4022V35.6421C17.415 35.8513 17.4021 36.0619 17.4025 36.2727C17.4025 36.4066 17.4313 36.5305 17.4413 36.6606V53.1198C17.388 53.5385 17.388 53.9622 17.4413 54.3809V55.6284Z" fill="#414A55"/>
<path fill-rule="evenodd" clip-rule="evenodd" d="M17.8543 55.8396C17.7134 55.7757 17.5756 55.7051 17.4414 55.6282V54.3808C17.5052 54.895 17.6466 55.3855 17.8543 55.8396ZM17.4414 53.1196V36.6604C17.4314 36.5303 17.4026 36.4064 17.4026 36.2726C17.4026 36.0586 17.4151 35.8484 17.4414 35.642V53.1196Z" fill="#3A4048"/>
<path fill-rule="evenodd" clip-rule="evenodd" d="M58.0646 56.2527H26.8265C27.2482 55.5158 27.4897 54.6612 27.4897 53.7504C27.4897 53.3187 27.4359 52.8996 27.3333 52.4992H55.0743C54.9625 52.0913 54.9033 51.6709 54.8979 51.248C54.8982 49.9103 55.4298 48.6275 56.3759 47.6817C57.3219 46.7359 58.6049 46.2045 59.9426 46.2045C60.3905 46.2045 60.8184 46.2821 61.2326 46.3922V38.6675C61.6204 38.7638 62.0271 38.8139 62.4449 38.8139C63.3708 38.8139 64.2404 38.5649 64.9861 38.1282V49.3925C64.0269 48.8332 62.9099 48.6061 61.8084 48.7462C60.7069 48.8863 59.6824 49.3859 58.8938 50.1676C58.1052 50.9492 57.5965 51.9692 57.4465 53.0694C57.2966 54.1696 57.5139 55.2885 58.0646 56.2527ZM19.9438 49.37V46.2045C21.9845 46.2045 23.7412 47.4157 24.5357 49.1586C23.8797 48.8598 23.167 48.7058 22.4462 48.7069C21.5353 48.7069 20.6808 48.9484 19.9438 49.37ZM57.8531 35.8598C56.9718 35.4588 56.2245 34.8126 55.7005 33.9984C55.1765 33.1841 54.8978 32.2363 54.8979 31.268L54.8991 31.2292H58.0871C57.6362 32.0001 57.3991 32.8773 57.4002 33.7704C57.4002 34.5161 57.5629 35.2242 57.8531 35.8598Z" fill="#629986"/>
<path fill-rule="evenodd" clip-rule="evenodd" d="M58.0645 56.2526H26.8265H58.0645ZM17.4414 53.1196V34.4021C17.5691 35.421 18.0057 36.3763 18.6926 37.1397V46.3796C19.0955 46.2757 19.5096 46.2044 19.9438 46.2044V49.3699C19.2645 49.7581 18.6848 50.299 18.2506 50.9498C17.8163 51.6006 17.5393 52.3434 17.4414 53.1196ZM64.986 49.3924V38.1281V49.3924ZM58.087 31.2291H54.899C54.9028 30.795 54.9791 30.3808 55.0855 29.978H25.7717C24.8523 29.1702 23.6699 28.7254 22.4461 28.7268H22.4373H62.4836C63.2181 28.7268 63.915 28.8844 64.5431 29.1697C64.5467 29.1751 64.5497 29.181 64.5518 29.1872C63.4132 28.6632 62.1202 28.582 60.925 28.9595C59.7298 29.337 58.718 30.1461 58.087 31.2291Z" fill="#B3B2A4"/>
<path fill-rule="evenodd" clip-rule="evenodd" d="M62.4448 38.8137C62.027 38.8137 61.6203 38.7637 61.2325 38.6673V36.125C60.8183 36.2351 60.3904 36.3126 59.9425 36.3126C59.1968 36.3126 58.4886 36.15 57.853 35.8597C57.5538 35.2038 57.3993 34.4912 57.4001 33.7702C57.3996 32.9242 57.6119 32.0915 58.0177 31.3491C58.4234 30.6066 59.0094 29.9782 59.7218 29.5216C60.4342 29.0651 61.25 28.7952 62.094 28.7368C62.9381 28.6783 63.7833 28.8332 64.5518 29.1872C64.8308 29.8103 64.986 30.5022 64.986 31.2291V38.1281C64.2151 38.5788 63.3378 38.8155 62.4448 38.8137ZM18.6926 37.1397C17.8605 36.2148 17.4009 35.0143 17.4026 33.7702C17.4026 32.4342 17.9328 31.1526 18.8767 30.2071C19.8207 29.2615 21.1012 28.7291 22.4373 28.7268H22.4461C23.6699 28.7253 24.8523 29.1702 25.7717 29.9779H24.7996C24.9097 30.3921 24.9872 30.82 24.9872 31.2679C24.9872 32.6056 24.4559 33.8886 23.5101 34.8346C22.5643 35.7807 21.2815 36.3123 19.9437 36.3126C19.5096 36.3126 19.0955 36.2401 18.6926 36.1362V37.1397ZM59.9425 56.2914C59.8099 56.2914 59.6848 56.2626 59.5546 56.2526H58.0645C57.5138 55.2884 57.2965 54.1695 57.4464 53.0693C57.5964 51.9691 58.1051 50.9491 58.8937 50.1674C59.6823 49.3858 60.7068 48.8862 61.8083 48.746C62.9098 48.6059 64.0268 48.8331 64.986 49.3924V51.2479C64.9853 52.5853 64.4537 53.8677 63.508 54.8134C62.5624 55.7591 61.2799 56.2907 59.9425 56.2914ZM19.9437 56.2914C19.2229 56.2925 18.5103 56.1384 17.8543 55.8397C17.5542 55.1841 17.4001 54.4712 17.4026 53.7502C17.403 52.9062 17.6151 52.0758 18.0195 51.335C18.4239 50.5942 19.0076 49.9666 19.7173 49.5098C20.4269 49.0529 21.2399 48.7814 22.0816 48.72C22.9234 48.6586 23.7671 48.8094 24.5356 49.1584C24.8258 49.7953 24.9872 50.5022 24.9872 51.2479C24.9872 51.682 24.9159 52.0974 24.8121 52.4991H27.3332C27.4358 52.8994 27.4896 53.3186 27.4896 53.7502C27.4896 54.6611 27.2481 55.5156 26.8265 56.2526H20.3316C20.2015 56.2626 20.0764 56.2914 19.9437 56.2914Z" fill="#B3B2A4"/>
<path fill-rule="evenodd" clip-rule="evenodd" d="M36.0537 47.6498C35.0844 47.0577 34.2622 46.2534 33.6488 45.2975C33.0354 44.3415 32.6469 43.2589 32.5126 42.131C32.3783 41.0032 32.5017 39.8596 32.8734 38.7864C33.2452 37.7131 33.8556 36.7382 34.6587 35.9351C35.4619 35.132 36.4368 34.5215 37.51 34.1498C38.5832 33.7781 39.7268 33.6547 40.8547 33.789C41.9825 33.9233 43.0652 34.3118 44.0211 34.9251C44.977 35.5385 45.7813 36.3608 46.3734 37.3301C44.936 36.452 43.245 36.0829 41.5724 36.2821C39.8999 36.4813 38.3429 37.2371 37.1518 38.4282C35.9608 39.6192 35.2049 41.1762 35.0057 42.8488C34.8066 44.5214 35.1757 46.2123 36.0537 47.6498Z" fill="#629986"/>
<path fill-rule="evenodd" clip-rule="evenodd" d="M39.9622 48.7456C38.5831 48.7479 37.2303 48.3686 36.0535 47.6496C35.1755 46.2122 34.8064 44.5212 35.0056 42.8486C35.2047 41.1761 35.9606 39.6191 37.1517 38.428C38.3427 37.237 39.8997 36.4811 41.5723 36.2819C43.2448 36.0828 44.9358 36.4519 46.3732 37.3299C47.0674 38.4682 47.4459 39.7707 47.4698 41.1037C47.4938 42.4367 47.1623 43.752 46.5095 44.9145C45.8567 46.0769 44.906 47.0445 43.7554 47.7179C42.6047 48.3912 41.2954 48.7459 39.9622 48.7456Z" fill="#414A55"/>
<path fill-rule="evenodd" clip-rule="evenodd" d="M17.4413 52.499C15.3718 52.499 13.6877 50.8149 13.6877 48.7455V28.7267C13.6877 26.6573 15.3718 24.9732 17.4413 24.9732H57.4788C59.5482 24.9732 61.2323 26.6573 61.2323 28.7267V48.7455C61.2323 50.8149 59.5482 52.499 57.4788 52.499H17.4413Z" fill="#73BBA3"/>
<path fill-rule="evenodd" clip-rule="evenodd" d="M57.4788 23.7225H17.4412C16.1139 23.7225 14.8409 24.2498 13.9024 25.1884C12.9638 26.1269 12.4365 27.3999 12.4365 28.7272V48.746C12.4365 50.0733 12.9638 51.3463 13.9024 52.2848C14.8409 53.2234 16.1139 53.7507 17.4412 53.7507H57.4788C58.8061 53.7507 60.079 53.2234 61.0176 52.2848C61.9562 51.3463 62.4834 50.0733 62.4834 48.746V28.7272C62.4834 27.3999 61.9562 26.1269 61.0176 25.1884C60.079 24.2498 58.8061 23.7225 57.4788 23.7225ZM57.4788 26.2249C58.8588 26.2249 59.9811 27.3472 59.9811 28.7272V48.746C59.9811 50.126 58.8588 51.2483 57.4788 51.2483H17.4412C16.0612 51.2483 14.9389 50.126 14.9389 48.746V28.7272C14.9389 27.3472 16.0612 26.2249 17.4412 26.2249H57.4788Z" fill="#DEDECA"/>
<path fill-rule="evenodd" clip-rule="evenodd" d="M44.9667 38.7363C44.9667 40.7273 44.1758 42.6367 42.768 44.0446C41.3601 45.4524 39.4507 46.2433 37.4597 46.2433C35.4687 46.2433 33.5592 45.4524 32.1514 44.0446C30.7436 42.6367 29.9526 40.7273 29.9526 38.7363C29.9526 36.7453 30.7436 34.8359 32.1514 33.428C33.5592 32.0202 35.4687 31.2292 37.4597 31.2292C39.4507 31.2292 41.3601 32.0202 42.768 33.428C44.1758 34.8359 44.9667 36.7453 44.9667 38.7363Z" fill="#4C5665"/>
<path fill-rule="evenodd" clip-rule="evenodd" d="M52.3953 28.7658C52.3953 30.1037 52.9268 31.3869 53.8729 32.333C54.819 33.279 56.1021 33.8105 57.4401 33.8105C58.778 33.8105 60.0612 33.279 61.0072 32.333C61.9533 31.3869 62.4848 30.1037 62.4848 28.7658C62.4848 27.4279 61.9533 26.1447 61.0072 25.1986C60.0612 24.2526 58.778 23.7211 57.4401 23.7211C56.1021 23.7211 54.819 24.2526 53.8729 25.1986C52.9268 26.1447 52.3953 27.4279 52.3953 28.7658ZM12.3978 28.7658C12.3873 29.4349 12.51 30.0994 12.7587 30.7206C13.0075 31.3418 13.3774 31.9073 13.8468 32.3842C14.3162 32.8611 14.8759 33.2398 15.4931 33.4983C16.1103 33.7568 16.7728 33.89 17.4419 33.89C18.1111 33.89 18.7736 33.7568 19.3908 33.4983C20.008 33.2398 20.5677 32.8611 21.0371 32.3842C21.5065 31.9073 21.8764 31.3418 22.1251 30.7206C22.3739 30.0994 22.4966 29.4349 22.486 28.7658C22.4652 27.4418 21.9246 26.179 20.9809 25.2501C20.0372 24.3212 18.7661 23.8005 17.4419 23.8005C16.1178 23.8005 14.8467 24.3212 13.903 25.2501C12.9593 26.179 12.4187 27.4418 12.3978 28.7658ZM52.3953 48.7458C52.3849 49.4149 52.5077 50.0793 52.7565 50.7005C53.0053 51.3217 53.3753 51.8872 53.8448 52.364C54.3143 52.8408 54.8739 53.2195 55.4912 53.4779C56.1084 53.7364 56.7709 53.8694 57.4401 53.8693C58.1093 53.8692 58.7717 53.736 59.3889 53.4774C60.0061 53.2188 60.5657 52.84 61.035 52.3631C61.5044 51.8862 61.8742 51.3206 62.1229 50.6994C62.3716 50.0781 62.4942 49.4136 62.4836 48.7445C62.4625 47.4205 61.9218 46.1578 60.978 45.229C60.0342 44.3002 58.763 43.7797 57.4388 43.7799C56.1146 43.78 54.8436 44.3008 53.9 45.2299C52.9565 46.1589 52.416 47.4217 52.3953 48.7458ZM12.3978 48.7458C12.3978 50.0836 12.9293 51.3665 13.8752 52.3125C14.8212 53.2584 16.1042 53.7899 17.4419 53.7899C18.7797 53.7899 20.0627 53.2584 21.0087 52.3125C21.9546 51.3665 22.486 50.0836 22.486 48.7458C22.486 47.408 21.9546 46.125 21.0087 45.1791C20.0627 44.2331 18.7797 43.7017 17.4419 43.7017C16.1042 43.7017 14.8212 44.2331 13.8752 45.1791C12.9293 46.125 12.3978 47.408 12.3978 48.7458Z" fill="#DEDECA"/>
</g>
</svg>
