<svg width="94" height="94" viewBox="0 0 94 94" fill="none" xmlns="http://www.w3.org/2000/svg">
<path d="M47 94C72.9574 94 94 72.9574 94 47C94 21.0426 72.9574 0 47 0C21.0426 0 0 21.0426 0 47C0 72.9574 21.0426 94 47 94Z" fill="#50B748"/>
<path d="M56.8896 92.8915C57.7909 92.7167 58.6869 92.5156 59.5764 92.2883C61.0847 91.8667 62.571 91.37 64.0297 90.8C65.4902 90.2347 66.9216 89.5968 68.3184 88.8887C69.7157 88.1777 71.0764 87.3973 72.3957 86.5504C73.7134 85.7033 74.9879 84.7909 76.2144 83.8166C77.4431 82.8409 78.6222 81.8043 79.7473 80.7107C80.8704 79.6197 81.9384 78.4733 82.9472 77.2757C83.9568 76.0771 84.9058 74.8288 85.7907 73.5353C86.6753 72.2441 87.4949 70.9094 88.2464 69.5364C88.998 68.1614 89.6804 66.7496 90.2909 65.3064C90.9021 63.8629 91.4406 62.3897 91.9046 60.8923C92.3019 59.5813 92.6416 58.2536 92.9229 56.913L64.9971 28.9911C62.6387 26.6223 59.8353 24.7433 56.7479 23.4621C53.6606 22.1809 50.3504 21.5229 47.0079 21.5259C43.6623 21.5222 40.3489 22.1799 37.2583 23.461C34.1678 24.7422 31.3609 26.6215 28.999 28.9911C26.6313 31.3536 24.7527 34.16 23.471 37.2496C22.1893 40.3391 21.5295 43.6511 21.5295 46.996C21.5295 50.3408 22.1893 53.6529 23.471 56.7424C24.7527 59.8319 26.6313 62.6383 28.999 65.0009L56.8896 92.8876V92.8915Z" fill="#10A711"/>
<path d="M47.004 21.5297C53.5135 21.5297 60.023 24.0168 65.005 28.9949C67.3727 31.3575 69.2513 34.1639 70.533 37.2534C71.8147 40.343 72.4744 43.655 72.4744 46.9998C72.4744 50.3447 71.8147 53.6567 70.533 56.7462C69.2513 59.8358 67.3727 62.6422 65.005 65.0047C62.6424 67.3725 59.836 69.251 56.7465 70.5328C53.6569 71.8145 50.3449 72.4742 47 72.4742C43.6552 72.4742 40.3432 71.8145 37.2536 70.5328C34.1641 69.251 31.3577 67.3725 28.9951 65.0047C26.6273 62.6422 24.7488 59.8358 23.4671 56.7462C22.1854 53.6567 21.5256 50.3447 21.5256 46.9998C21.5256 43.655 22.1854 40.343 23.4671 37.2534C24.7488 34.1639 26.6273 31.3575 28.9951 28.9949C31.357 26.6254 34.1639 24.746 37.2544 23.4649C40.345 22.1837 43.6584 21.5261 47.004 21.5297ZM58.5973 39.1626C58.2265 39.1981 57.8734 39.338 57.579 39.566L43.2675 50.2977L36.6365 43.6707C35.1991 42.1745 32.3674 45.0023 33.8675 46.4397L41.7008 54.2731C42.0404 54.5942 42.4806 54.788 42.9467 54.8215C43.4129 54.8551 43.8763 54.7263 44.2584 54.4572L59.925 42.7072C61.241 41.7476 60.4303 39.19 58.801 39.1665C58.7344 39.1631 58.6678 39.1631 58.6012 39.1665L58.5973 39.1626Z" fill="white"/>
</svg>
