<svg width="80" height="80" viewBox="0 0 80 80" fill="none" xmlns="http://www.w3.org/2000/svg">
<circle cx="40" cy="40" r="40" fill="#00C2FF"/>
<path d="M21.1309 27.1092V49.083H59.9683V27.1092H21.1309ZM21.1309 24.5541H59.9683C60.646 24.5541 61.2959 24.8233 61.7751 25.3024C62.2542 25.7816 62.5234 26.4315 62.5234 27.1092V49.083C62.5234 49.4185 62.4574 49.7508 62.3289 50.0608C62.2005 50.3708 62.0123 50.6524 61.7751 50.8897C61.5378 51.127 61.2561 51.3152 60.9461 51.4436C60.6361 51.572 60.3039 51.6381 59.9683 51.6381H21.1309C20.7954 51.6381 20.4631 51.572 20.1531 51.4436C19.8431 51.3152 19.5614 51.127 19.3242 50.8897C19.0869 50.6524 18.8987 50.3708 18.7703 50.0608C18.6419 49.7508 18.5758 49.4185 18.5758 49.083V27.1092C18.5758 26.4315 18.845 25.7816 19.3242 25.3024C19.8033 24.8233 20.4532 24.5541 21.1309 24.5541Z" fill="white"/>
<path fill-rule="evenodd" clip-rule="evenodd" d="M21.1305 27.1094H59.9679V49.0832H21.1305V27.1094Z" fill="url(#paint0_linear_153_882)"/>
<path d="M51.7917 53.1721H28.7958C28.2314 53.1721 27.7738 53.6297 27.7738 54.1942V55.2162C27.7738 55.7807 28.2314 56.2382 28.7958 56.2382H51.7917C52.3561 56.2382 52.8137 55.7807 52.8137 55.2162V54.1942C52.8137 53.6297 52.3561 53.1721 51.7917 53.1721Z" fill="white"/>
<defs>
<linearGradient id="paint0_linear_153_882" x1="14.2788" y1="22.924" x2="36.3026" y2="62.3148" gradientUnits="userSpaceOnUse">
<stop stop-color="#00DBE9"/>
<stop offset="0.39671" stop-color="#00F8CB"/>
<stop offset="1" stop-color="#00BCD7"/>
</linearGradient>
</defs>
</svg>
