<svg width="80" height="80" viewBox="0 0 80 80" fill="none" xmlns="http://www.w3.org/2000/svg">
<circle cx="40" cy="40" r="40" fill="#FF5F00"/>
<path d="M42.8226 48.5628C42.2827 48.3485 41.7304 48.1669 41.1687 48.019C40.967 47.9621 40.7507 47.9035 40.5213 47.842C40.1669 47.7454 39.8785 47.6632 39.6582 47.6005C39.3644 47.5162 39.2426 47.4764 39.2007 47.4612C39.0163 47.3966 38.8523 47.2843 38.7254 47.1358C38.6416 47.0327 38.5968 46.9034 38.5988 46.7706C38.6037 46.6503 38.6375 46.533 38.6973 46.4285C38.757 46.324 38.841 46.2354 38.9422 46.1701C39.1464 46.0333 39.3811 45.9487 39.6256 45.9237C39.8422 45.8923 40.0608 45.8777 40.2796 45.8802C40.5283 45.8757 40.7763 45.9072 41.0159 45.9737C41.1874 46.0212 41.3481 46.1013 41.4892 46.2098C41.6491 46.3369 41.7757 46.501 41.8582 46.6879C41.9729 46.933 42.1794 47.1231 42.4331 47.2171C42.6868 47.3111 42.9673 47.3015 43.214 47.1904C43.4607 47.0793 43.6537 46.8755 43.7514 46.6232C43.849 46.3709 43.8435 46.0903 43.7359 45.842C43.6569 45.6585 43.5579 45.4841 43.4408 45.3222C43.1031 44.8943 42.6486 44.5736 42.1322 44.3988C41.8841 44.3053 41.6284 44.2334 41.3679 44.1839V43.4354H39.3094V44.1449C39.1272 44.1747 38.9471 44.2162 38.7702 44.2693C38.3929 44.3685 38.0359 44.5329 37.7153 44.7552C37.3681 45.0021 37.0829 45.3262 36.8824 45.7021C36.6682 46.1046 36.5618 46.5557 36.5734 47.0115C36.5851 47.4673 36.7144 47.9123 36.9489 48.3034C37.2133 48.7258 37.5966 49.0608 38.0507 49.2661C38.5224 49.472 39.0093 49.6411 39.507 49.7718C39.7845 49.8517 40.0927 49.9334 40.4348 50.0202C40.6522 50.0745 40.8474 50.1273 41.0191 50.1745C41.3294 50.2463 41.6297 50.3556 41.9135 50.5001C42.0161 50.5595 42.1007 50.6456 42.1585 50.7491C42.2163 50.8527 42.245 50.9699 42.2417 51.0884C42.2386 51.2442 42.1997 51.3972 42.1281 51.5355C42.0564 51.6739 41.954 51.7939 41.8286 51.8864C41.6011 52.0599 41.3318 52.1702 41.048 52.2059C40.8474 52.2386 40.6444 52.2541 40.4412 52.2521C40.1758 52.2554 39.911 52.2248 39.6534 52.1611C39.4103 52.101 39.1833 51.9882 38.9887 51.8307C38.7659 51.6416 38.5971 51.3968 38.4994 51.1214C38.4503 50.9955 38.377 50.8806 38.2835 50.7831C38.19 50.6855 38.0782 50.6074 37.9545 50.5531C37.8308 50.4988 37.6976 50.4694 37.5625 50.4665C37.4275 50.4637 37.2932 50.4875 37.1673 50.5366C37.0414 50.5856 36.9265 50.659 36.829 50.7525C36.7314 50.846 36.6533 50.9578 36.599 51.0815C36.5447 51.2052 36.5153 51.3383 36.5124 51.4734C36.5096 51.6085 36.5334 51.7428 36.5825 51.8686C36.791 52.4159 37.1413 52.898 37.5975 53.2652C38.0994 53.6408 38.6884 53.8827 39.3094 53.9681V54.6969H41.3679V53.9836C41.745 53.923 42.113 53.8155 42.4634 53.6635C43.0338 53.4274 43.5224 53.029 43.8686 52.5177C44.1876 52.0483 44.3592 51.4944 44.3616 50.9269C44.3778 50.4078 44.2326 49.8964 43.9461 49.4632C43.6647 49.0624 43.275 48.7501 42.8226 48.5628Z" fill="white"/>
<path d="M56.408 51.3929L49.2095 36.0062L49.2977 35.5357L51.5786 23.346C51.6529 22.922 51.5762 22.4854 51.3618 22.1122C51.1474 21.7389 50.8088 21.4527 50.4051 21.3034L41.1537 17.7166C40.7807 17.5714 40.3723 17.5433 39.983 17.6361C39.5936 17.7288 39.2417 17.938 38.9743 18.2357C38.7078 18.5449 38.5498 18.9328 38.5243 19.3402L38.3154 21.9313L32.3228 20.874C31.9274 20.8037 31.52 20.8561 31.1552 21.024C30.9645 21.1086 30.7894 21.225 30.6376 21.3681C30.4196 21.5707 30.2549 21.8239 30.158 22.1052C30.0611 22.3866 30.0348 22.6874 30.0817 22.9813L32.0655 35.0459L24.4699 51.3929C23.9119 52.5937 23.6655 53.9158 23.7535 55.2371C23.8416 56.5583 24.2612 57.836 24.9737 58.9522C25.6862 60.0683 26.6685 60.9869 27.8299 61.6229C28.9913 62.259 30.2943 62.5921 31.6184 62.5914H49.261C50.5851 62.5922 51.8882 62.2592 53.0496 61.6231C54.211 60.9871 55.1933 60.0685 55.9057 58.9522C56.6181 57.836 57.0375 56.5582 57.1253 55.2369C57.2131 53.9157 56.9664 52.5936 56.408 51.3929H56.408ZM38.0199 25.6342L37.9419 26.6298C37.9266 26.8763 37.9601 27.1233 38.0406 27.3567C38.1211 27.5901 38.247 27.8052 38.4111 27.9898C38.5751 28.1743 38.774 28.3246 38.9964 28.4319C39.2187 28.5392 39.4601 28.6015 39.7066 28.6151C39.7566 28.6195 39.8037 28.621 39.8537 28.621C40.3288 28.6281 40.7892 28.4563 41.1436 28.1398C41.498 27.8232 41.7205 27.3851 41.7669 26.9122L42.1507 22.0857L47.5271 24.1695L45.6698 34.0783C44.1954 34.9594 42.5223 35.4538 40.8058 35.5158C39.0893 35.5777 37.3849 35.2052 35.8508 34.4327L34.2934 24.9784L38.0199 25.6342ZM40.439 56.4797C38.9728 56.4797 37.5395 56.0449 36.3204 55.2303C35.1013 54.4157 34.1512 53.2579 33.5901 51.9034C33.029 50.5488 32.8822 49.0582 33.1682 47.6202C33.4543 46.1822 34.1603 44.8613 35.1971 43.8245C36.2338 42.7878 37.5547 42.0817 38.9927 41.7957C40.4307 41.5097 41.9213 41.6565 43.2759 42.2176C44.6305 42.7787 45.7882 43.7288 46.6028 44.9479C47.4174 46.167 47.8522 47.6003 47.8522 49.0665C47.8501 51.0319 47.0685 52.9163 45.6786 54.3061C44.2888 55.6959 42.4044 56.4776 40.439 56.4797Z" fill="white"/>
</svg>
