<svg width="119" height="137" viewBox="0 0 119 137" fill="none" xmlns="http://www.w3.org/2000/svg">
<path d="M118.228 77.3006C118.228 88.4322 115.154 98.8217 109.8 107.7C100.709 122.834 85.0454 133.542 66.7577 135.901H66.6517C64.2134 136.219 61.6955 136.378 59.1511 136.378H59.1246C56.5803 136.378 54.0889 136.219 51.6506 135.901C51.5976 135.901 51.5445 135.901 51.4915 135.874C33.2304 133.515 17.5666 122.808 8.50232 107.7C3.14854 98.8217 0.0740967 88.4322 0.0740967 77.3006C0.0740967 56.389 10.9407 38.0219 27.2935 27.5264C36.4904 21.6425 47.4099 18.2235 59.1246 18.2235C71.0514 18.2235 82.1565 21.7485 91.4328 27.8179C107.574 38.3929 118.228 56.6011 118.228 77.3006Z" fill="#B0BAC6"/>
<path d="M73.2777 100.518L72.6416 97.1785C72.6416 97.1785 72.1911 97.9206 71.3164 98.9807C71.0514 99.2723 70.7864 99.6168 70.4418 99.9614C70.3358 100.067 70.2298 100.2 70.1238 100.306C67.9505 102.585 64.3989 105.315 59.9198 105.607H59.1247C58.9391 105.607 58.7801 105.607 58.6211 105.58H58.3296C55.0696 105.368 52.3397 103.884 50.2194 102.214C49.2918 101.472 48.4966 100.703 47.834 100.014C47.4895 99.6433 47.1715 99.2988 46.9064 98.9542C46.0318 97.8941 45.5812 97.1519 45.5812 97.1519L44.3885 103.407L44.4151 103.539L51.4651 135.874C51.5181 135.874 51.5711 135.901 51.6241 135.901C54.0624 136.219 56.5538 136.378 59.0982 136.378H59.1247C61.669 136.378 64.1604 136.219 66.6253 135.901H66.7313L73.8078 103.433L73.2777 100.518Z" fill="white"/>
<path d="M26.737 51.5918C23.6361 52.758 22.1254 55.4349 22.1254 58.9334C22.1254 63.439 25.7829 67.123 30.315 67.123C30.7921 67.123 31.2427 67.07 31.6932 66.9905C29.785 62.6174 27.5587 57.7407 26.737 51.5918Z" fill="#C3A898"/>
<path d="M91.5124 51.5918C94.6133 52.758 96.124 55.4349 96.124 58.9334C96.124 63.439 92.4665 67.123 87.9344 67.123C87.4573 67.123 87.0067 67.07 86.5562 66.9905C88.4644 62.6174 90.6642 57.7407 91.5124 51.5918Z" fill="#D4C1B5"/>
<path d="M46.9064 84.2975V99.6698C46.9064 99.6698 50.4049 105.633 59.0981 105.633V89.5188C59.1246 89.5188 54.5395 85.9673 46.9064 84.2975Z" fill="#C3A898"/>
<path d="M51.6506 135.901C51.5975 135.901 51.5445 135.901 51.4915 135.874C33.2304 133.515 17.5666 122.808 8.50232 107.7C9.21792 107.568 10.3576 107.329 11.8153 106.985C14.2006 106.455 17.4076 105.686 20.9326 104.732C23.1589 104.122 25.4913 103.433 27.8236 102.665C36.9674 99.6698 46.0052 95.5617 46.9064 90.7115V90.6585C46.9064 90.6585 47.2774 94.5015 47.8075 100.014C47.834 100.306 47.8605 100.624 47.887 100.942C47.94 101.499 47.993 102.082 48.0725 102.665C49.1857 113.69 50.7494 129.222 51.6506 135.901Z" fill="#231F20"/>
<path d="M71.3164 84.2975V99.6698C71.3164 99.6698 67.8179 105.633 59.1246 105.633V89.5188C59.1246 89.5188 63.7098 85.9673 71.3164 84.2975Z" fill="#D4C1B5"/>
<path d="M59.1247 90.3139C53.4794 90.3139 46.933 84.7216 46.933 84.7216V87.902C50.829 92.6727 59.1247 93.4413 59.1247 93.4413C59.1247 93.4413 67.4204 92.6727 71.3165 87.902V84.7216C71.3165 84.7216 64.7701 90.3139 59.1247 90.3139Z" fill="#BA9E81"/>
<path d="M93.6061 19.0716C92.4664 16.0502 90.0546 14.937 89.6305 14.7515C89.604 14.1419 89.445 11.9421 87.9608 10.4314C86.1585 8.6026 83.1106 8.49658 80.6192 10.4314C80.5397 10.0073 80.0361 7.11838 77.6773 5.63417C75.557 4.30897 72.7741 4.65352 70.7598 6.5883C70.7068 5.97872 70.1237 3.72589 68.0299 2.26818C65.5916 0.598438 61.5365 -0.514724 58.9391 3.51386C56.3682 -0.514724 52.7372 0.412911 50.2989 2.08265C48.1785 3.54036 47.622 5.97872 47.569 6.5883C45.5282 4.65352 42.7718 4.28247 40.6515 5.63417C38.2926 7.11838 37.789 10.0073 37.7095 10.4314C35.2182 8.49658 32.1702 8.6026 30.368 10.4314C28.8838 11.9421 28.7247 14.1419 28.6982 14.7515C28.2477 14.937 25.8358 16.0237 24.7227 19.0716C23.371 22.6496 24.9612 25.9096 25.1467 26.2541C24.8552 31.1309 24.2986 35.9811 24.2986 40.8578C24.2986 59.543 36.7554 74.7032 36.7554 74.7032L59.1776 49.8691L81.5999 74.7032C81.5999 74.7032 94.0567 59.5695 94.0567 40.8578C94.0567 35.9811 93.5001 31.1043 93.2085 26.2541C93.3676 25.8831 94.9313 22.6496 93.6061 19.0716Z" fill="#231F20"/>
<path d="M59.1246 89.8899C59.1246 89.8899 22.5494 84.7217 27.9031 29.2491H59.1246V89.8899Z" fill="#C3A898"/>
<path d="M45.8197 58.0853C47.6641 58.0853 49.1592 56.3528 49.1592 54.2157C49.1592 52.0786 47.6641 50.3462 45.8197 50.3462C43.9754 50.3462 42.4802 52.0786 42.4802 54.2157C42.4802 56.3528 43.9754 58.0853 45.8197 58.0853Z" fill="#1D1D1D"/>
<path d="M59.1246 89.8899C59.1246 89.8899 95.6999 84.7217 90.3462 29.2491H59.1246V89.8899Z" fill="#D4C1B5"/>
<path d="M109.8 107.7C100.709 122.834 85.0454 133.542 66.7578 135.901H66.6517C67.5794 128.824 69.3021 111.941 70.3888 100.915C70.3888 100.703 70.4153 100.544 70.4418 100.359C70.4418 100.226 70.4683 100.12 70.4683 99.9878C70.9189 95.6147 71.2369 92.2752 71.3429 91.1356C71.3694 90.844 71.3694 90.685 71.3694 90.685C72.1645 95.0846 79.6651 98.9277 87.9343 101.843C97.0251 105.024 106.991 107.144 109.8 107.7Z" fill="#231F20"/>
<path d="M72.4296 58.0853C74.2739 58.0853 75.7691 56.3528 75.7691 54.2157C75.7691 52.0786 74.2739 50.3462 72.4296 50.3462C70.5852 50.3462 69.0901 52.0786 69.0901 54.2157C69.0901 56.3528 70.5852 58.0853 72.4296 58.0853Z" fill="#1D1D1D"/>
<path d="M59.1511 71.8143H53.4263L53.5058 71.8938C56.6067 74.9417 61.669 74.9417 64.7699 71.8938L64.8494 71.8143H59.1511Z" fill="white"/>
<path d="M25.7034 50.8763L26.9225 26.8373H91.4064L91.3534 50.3197C91.3534 50.3197 90.3197 56.7336 86.5827 58.0853C86.5827 58.0853 88.756 39.5326 78.7905 34.5234C78.7905 34.5234 82.7926 40.8578 82.6336 45.0984C82.6336 45.0984 59.2837 30.5213 39.6444 31.0249C39.6179 31.0249 29.785 32.9332 25.7034 50.8763Z" fill="#231F20"/>
<path d="M46.9063 88.6971L41.6851 91.4005L44.8125 98.318L42.4802 99.2457L49.1326 113.293L46.9063 88.6971ZM71.3163 88.6971L76.5641 91.4005L73.4101 98.318L75.7425 99.2457L69.09 113.293L71.3163 88.6971Z" fill="#474748"/>
</svg>
