<svg width="50" height="46" viewBox="0 0 50 46" fill="none" xmlns="http://www.w3.org/2000/svg">
<path d="M0 0V22H11.8243H12.5H37.5H38.0405H50V0H0Z" fill="#00EFD1"/>
<path d="M5 6V17H11.5897H12.0603H36.9397H44V6H5Z" fill="#00CEB4"/>
<path d="M32 45.6V12H37V42C37 43.0609 36.6282 44.0783 35.9663 44.8284C35.3044 45.5786 34.4066 46 33.4706 46H32V45.6Z" fill="#FEDB41"/>
<path d="M32 45.6V46H27V45.6V12.2667V12H32V12.2667V45.6Z" fill="#00ACEA"/>
<path d="M27 45.6V46H16.186C15.0758 46 14.0111 45.5786 13.2261 44.8284C12.441 44.0783 12 43.0609 12 42V12H27V45.6Z" fill="#FEDB41"/>
<path d="M19.5009 31C20.1637 31 20.7993 31.2671 21.268 31.7425C21.7367 32.218 21.9999 32.8628 21.9999 33.5352C22.0024 33.9136 21.9192 34.2876 21.7567 34.6282C21.5943 34.9689 21.3568 35.2671 21.0628 35.5C21.347 35.7417 21.5775 36.0418 21.739 36.3805C21.9005 36.7191 21.9895 37.0887 21.9999 37.4648C21.9999 38.1372 21.7367 38.782 21.268 39.2575C20.7993 39.7329 20.1637 40 19.5009 40C18.8381 40 18.2025 39.7329 17.7338 39.2575C17.2652 38.782 17.0019 38.1372 17.0019 37.4648C17.0006 37.0929 17.078 36.725 17.2289 36.386C17.3798 36.0471 17.6006 35.7449 17.8765 35.5C17.5903 35.2639 17.3622 34.9635 17.2104 34.6224C17.0586 34.2814 16.9872 33.9091 17.0019 33.5352C17.0019 32.8628 17.2652 32.218 17.7338 31.7425C18.2025 31.2671 18.8381 31 19.5009 31Z" fill="#00EFD1"/>
</svg>
