<svg width="42" height="26" viewBox="0 0 42 26" fill="none" xmlns="http://www.w3.org/2000/svg">
<path d="M39.9 0H2.1C0.940406 0 0 0.940406 0 2.1V23.1C0 24.2596 0.940406 25.2 2.1 25.2H39.9C41.0596 25.2 42 24.2596 42 23.1V2.1C42 0.940406 41.0596 0 39.9 0ZM3.15 22.05V17.85C5.46984 17.85 7.35 19.7302 7.35 22.05H3.15ZM3.15 7.35V3.15H7.35C7.35 5.46984 5.46984 7.35 3.15 7.35ZM21 18.9C18.1 18.9 15.75 16.0788 15.75 12.6C15.75 9.12056 18.1007 6.3 21 6.3C23.8993 6.3 26.25 9.12056 26.25 12.6C26.25 16.0801 23.8987 18.9 21 18.9ZM38.85 22.05H34.65C34.65 19.7302 36.5302 17.85 38.85 17.85V22.05ZM38.85 7.35C36.5302 7.35 34.65 5.46984 34.65 3.15H38.85V7.35Z" fill="white"/>
</svg>
