<svg width="32" height="34" viewBox="0 0 32 34" fill="none" xmlns="http://www.w3.org/2000/svg">
<path d="M22.1985 18.9392C22.0378 18.9392 22.0378 18.7763 21.8771 18.7763C24.2873 16.9842 25.5728 14.2146 25.5728 11.1191C25.5728 10.7933 25.5728 10.4675 25.5728 10.1416V9.9787L26.0548 6.06868C26.3762 3.462 24.6087 1.18115 22.1985 0.6924L20.7524 0.366565C17.5388 -0.122188 14.3252 -0.122188 11.1116 0.366565L9.82611 0.6924C7.25522 1.18115 5.48774 3.462 5.8091 6.06868L6.29114 9.9787V10.1416C6.29114 10.4675 6.29114 10.7933 6.29114 11.1191C6.29114 14.0516 7.57659 16.9842 9.98679 18.7763C9.82611 18.7763 9.82611 18.9392 9.66543 18.9392C4.36298 21.22 0.667329 26.2705 0.0246072 32.1355C-0.136073 32.9501 0.506648 33.7647 1.47073 33.9276C2.43481 34.0905 29.5898 33.9276 30.3932 33.9276H30.5539C31.3573 33.7647 32 32.9501 32 32.1355C31.1966 26.2705 27.5009 21.22 22.1985 18.9392ZM15.932 23.9896L13.2004 21.22C14.9679 20.8942 16.7354 20.8942 18.5028 21.22L15.932 23.9896ZM15.932 17.6358C12.397 17.6358 9.66543 14.8662 9.50475 11.282H22.3592C22.1985 14.8662 19.4669 17.6358 15.932 17.6358Z" fill="white"/>
</svg>
