<svg width="84" height="93" viewBox="0 0 84 93" fill="none" xmlns="http://www.w3.org/2000/svg">
<path d="M63.809 21.8076V42.3542C62.4149 42.118 60.9812 41.9993 59.5283 41.9993C45.1344 41.9993 33.4697 53.7008 33.4697 68.1406C33.4697 72.0805 34.3338 75.8038 35.8855 79.1529L16.8765 66.1316C12.1835 62.9201 8.0791 55.1192 8.0791 49.426V21.7685L35.9442 8.07703L63.809 21.8076Z" fill="#00ACEA"/>
<path d="M71.8835 19.9818V45.8946L71.8446 45.9537C69.0847 44.2514 66.0188 43.1058 62.8194 42.5816V22.8018L35.9422 9.58914L9.06413 22.7623V49.3852C9.06413 54.8671 13.0251 62.3615 17.5575 65.4571L35.9024 77.9801C37.2032 80.7799 38.9963 83.285 41.1831 85.4148L38.5033 87.2483C37.7351 87.7813 36.8482 88.0371 35.942 88.0371C35.0553 88.0371 34.1484 87.7813 33.3802 87.2483L12.4534 72.9708C5.47833 68.1987 0 57.8454 0 49.4052V19.9427C0 18.2073 0.984888 16.6298 2.54202 15.8601L33.9519 0.458339C34.5755 0.156684 35.2592 0 35.9518 0C36.6444 0 37.328 0.156684 37.9516 0.458339L69.3615 15.8997C70.119 16.2789 70.7561 16.8615 71.2016 17.5824C71.647 18.3034 71.8831 19.1342 71.8835 19.9818Z" fill="#00EFD1"/>
<path d="M35.4743 78.1503C33.9539 74.8963 33.1162 71.2514 33.1162 67.4317C33.1162 53.3805 44.4971 41.9996 58.5486 41.9996C59.9707 41.9996 61.3739 42.1161 62.7382 42.35C66.0508 42.8957 69.1303 44.0846 71.8782 45.7799C79.1474 50.2626 84 58.2916 84 67.4513C84 81.5024 72.6185 92.8835 58.5675 92.8835C51.6694 92.8835 45.4134 90.1355 40.8341 85.6922C38.5954 83.5322 36.7779 80.9748 35.4743 78.1503Z" fill="#FEDB41"/>
<path d="M72.9311 76.7993L68.8689 72.5661C68.83 72.5062 68.7725 72.4666 68.7343 72.4062C68.6954 72.3666 68.6378 72.3067 68.5803 72.2666L60.5519 63.9396C62.6505 60.4452 62.2267 55.7723 59.3003 52.737C55.8924 49.2026 50.3478 49.183 46.9594 52.7177C43.5709 56.2321 43.5709 61.9427 46.9788 65.4774C48.6341 67.1943 50.8293 68.1131 53.1395 68.1131H53.159C54.8338 68.1131 56.4323 67.6541 57.8176 66.7352L64.614 73.8044L61.8999 76.6799C61.1487 77.4584 61.1487 78.7363 61.8999 79.515C62.285 79.9151 62.7658 80.0941 63.2666 80.0941C63.7668 80.0941 64.2483 79.8948 64.6333 79.515L67.3676 76.6799L68.8495 78.2369L65.7885 81.4125C65.61 81.5973 65.4684 81.8167 65.3718 82.0583C65.2752 82.2999 65.2255 82.5589 65.2255 82.8204C65.2255 83.0819 65.2752 83.3409 65.3718 83.5825C65.4684 83.824 65.61 84.0435 65.7885 84.2282C66.1735 84.6276 66.6552 84.8067 67.1553 84.8067C67.6562 84.8067 68.1375 84.6073 68.5227 84.2282L72.9505 79.6351C73.6822 78.8566 73.6822 77.5785 72.931 76.7993H72.9311ZM53.1972 64.1196C53.1776 64.1196 53.1776 64.1196 53.1972 64.1196C51.8687 64.1196 50.6558 63.6202 49.7317 62.6422C47.826 60.6648 47.8064 57.4698 49.6935 55.5131C50.6371 54.5346 51.8685 54.0555 53.1201 54.0555C54.3717 54.0555 55.6427 54.5547 56.5856 55.5529C58.492 57.5303 58.5116 60.705 56.6051 62.6818C55.7002 63.6202 54.4868 64.1196 53.1972 64.1196Z" fill="#00ACEA"/>
</svg>
