<svg width="230" height="55" viewBox="0 0 230 55" fill="none" xmlns="http://www.w3.org/2000/svg">
<path d="M5.54112 23.1456H12.0566C13.4736 23.1456 14.5152 22.8586 15.1766 22.2902C15.8448 21.7162 16.175 20.8176 16.175 19.5878C16.175 18.4205 15.8506 17.5344 15.2083 16.9354C14.5594 16.3306 13.5984 16.0301 12.312 16.0301H5.54112V23.1446V23.1456ZM0 38.3097V11.3885H13.0675C16.007 11.3885 18.1786 12.0125 19.5955 13.2672C21.0125 14.521 21.7171 16.4438 21.7171 19.0205C21.7171 20.6611 21.3744 22.0349 20.6813 23.1264C19.9949 24.2246 19.0022 24.9734 17.7043 25.3728C18.8717 25.7913 19.7011 26.4211 20.1946 27.2765C20.687 28.1318 20.9683 29.4605 21.0432 31.2643L21.1555 34.4467C21.1555 34.4717 21.1555 34.5091 21.1555 34.559C21.193 36.169 21.5424 37.1424 22.2038 37.4861V38.3097H16.1376C15.9437 37.9296 15.7949 37.4669 15.6883 36.912C15.5885 36.3571 15.5261 35.6957 15.5011 34.9277L15.4262 32.088C15.3638 30.4157 15.0518 29.2925 14.4835 28.7059C13.9162 28.1194 12.8928 27.8256 11.4192 27.8256H5.54112V38.3097H0ZM38.5219 32.281H43.8394C43.3027 34.3776 42.2227 36.0125 40.5946 37.2048C38.9654 38.3904 36.9811 38.9827 34.6349 38.9827C31.7578 38.9827 29.4739 38.016 27.7949 36.0874C26.1101 34.153 25.2672 31.5321 25.2672 28.2307C25.2672 24.9734 26.0976 22.4083 27.7507 20.5306C29.4106 18.6518 31.6762 17.7158 34.5523 17.7158C37.6042 17.7158 39.9571 18.6394 41.617 20.4864C43.2701 22.3334 44.1005 24.9667 44.1005 28.3805C44.1005 28.7606 44.1005 29.0419 44.0947 29.2358C44.088 29.423 44.0698 29.6035 44.0506 29.7725H30.7709C30.8458 31.3325 31.2269 32.5123 31.9133 33.3043C32.5997 34.0973 33.5914 34.4899 34.8835 34.4899C35.8013 34.4899 36.5501 34.3085 37.1299 33.9533C37.7165 33.5914 38.1782 33.0355 38.5219 32.281ZM30.7709 26.2896H38.5968C38.5469 24.9485 38.1917 23.9251 37.5302 23.2262C36.8621 22.5206 35.9078 22.1712 34.6656 22.1712C33.5117 22.1712 32.5997 22.5264 31.9325 23.232C31.271 23.9434 30.8842 24.961 30.7718 26.2896H30.7709ZM59.6333 30.8208H64.8749C64.656 33.3417 63.7325 35.3328 62.1101 36.793C60.4934 38.2531 58.4035 38.9827 55.8566 38.9827C52.968 38.9827 50.7024 38.041 49.0608 36.1565C47.4192 34.272 46.6022 31.6694 46.6022 28.3373C46.6022 25.0234 47.4384 22.4275 49.1174 20.543C50.7965 18.6586 53.0986 17.7158 56.0381 17.7158C58.6157 17.7158 60.6749 18.3965 62.2282 19.7626C63.7824 21.1296 64.656 23.0266 64.8365 25.4659H59.5574C59.4134 24.4118 59.039 23.6064 58.44 23.0448C57.841 22.4889 57.0547 22.2086 56.0813 22.2086C54.7584 22.2086 53.7782 22.727 53.1235 23.7629C52.4678 24.7987 52.1434 26.3529 52.1434 28.4246C52.1434 30.3341 52.4803 31.8067 53.161 32.8368C53.8349 33.8659 54.8083 34.3786 56.0813 34.3786C57.0672 34.3786 57.8592 34.079 58.4592 33.4857C59.0582 32.8867 59.4509 32.0006 59.6323 30.8208H59.6333ZM68.351 38.3088V11.3875H73.631V20.6227C74.3491 19.7241 75.2035 19.0445 76.2019 18.5885C77.1946 18.1325 78.3053 17.9021 79.5341 17.9021C80.7072 17.9021 81.7622 18.1018 82.7107 18.5078C83.6525 18.9072 84.4137 19.4813 85.0003 20.2243C85.4054 20.7235 85.6867 21.2976 85.849 21.9398C86.017 22.583 86.0986 23.6189 86.0986 25.0474V25.4093V38.3088H80.8195V27.8995C80.8195 25.4342 80.5949 23.8934 80.1456 23.2627C79.6906 22.632 78.8794 22.32 77.712 22.32C76.4515 22.32 75.4598 22.6944 74.7293 23.4432C73.9987 24.192 73.631 25.2154 73.631 26.5075V38.3088H68.351ZM102.18 35.8377C101.507 36.8736 100.626 37.6598 99.5405 38.2022C98.4547 38.7456 97.1942 39.0202 95.7523 39.0202C93.8237 39.0202 92.3386 38.471 91.297 37.3795C90.2544 36.2813 89.7302 34.7213 89.7302 32.6986C89.7302 30.8208 90.2544 29.3914 91.297 28.4054C92.3386 27.4195 94.0618 26.7456 96.4637 26.377C97.0128 26.2896 97.7366 26.1955 98.6227 26.0832C100.882 25.7894 102.012 25.1347 102.012 24.1238C102.012 23.3184 101.762 22.7386 101.263 22.3958C100.764 22.0464 99.9274 21.8717 98.7542 21.8717C97.681 21.8717 96.8573 22.0838 96.2832 22.5139C95.7091 22.9382 95.4221 23.5498 95.4221 24.3485V24.6422H90.4426V24.2736C90.4426 22.2326 91.1597 20.6294 92.6016 19.4621C94.0368 18.2957 96.0278 17.7149 98.5613 17.7149C101.344 17.7149 103.473 18.1958 104.958 19.1626C106.437 20.1235 107.179 21.5213 107.179 23.3376V34.6262C107.179 35.4566 107.267 36.0806 107.436 36.4857C107.61 36.8976 107.897 37.2038 108.303 37.4093V38.3078H102.762C102.581 37.9651 102.444 37.5898 102.344 37.1722C102.244 36.7603 102.194 36.311 102.181 35.8368L102.18 35.8377ZM102.086 28.5302C101.219 28.9354 100.221 29.2541 99.0979 29.497C97.968 29.7408 97.3882 29.8714 97.3507 29.8838C96.409 30.1526 95.7533 30.4829 95.3789 30.888C95.0112 31.2874 94.823 31.8422 94.823 32.5478C94.823 33.2784 95.0602 33.8582 95.5344 34.2893C96.0144 34.7194 96.6509 34.9382 97.4563 34.9382C98.8982 34.9382 100.027 34.5331 100.851 33.721C101.675 32.9155 102.086 31.8115 102.086 30.407V28.5283V28.5302ZM111.822 38.3088V18.4262H116.758V21.8275C117.451 20.4672 118.262 19.4621 119.192 18.8256C120.122 18.1824 121.226 17.8646 122.511 17.8646C122.718 17.8646 122.879 17.8646 122.991 17.8714C123.11 17.8771 123.204 17.8896 123.278 17.9021L123.297 23.2944H121.519C120.064 23.2944 118.973 23.6746 118.236 24.4301C117.506 25.1856 117.138 26.3088 117.138 27.7939V38.3088H111.821H111.822ZM130.537 28.056C130.537 29.9222 130.911 31.3574 131.66 32.3558C132.409 33.3542 133.482 33.8534 134.874 33.8534C136.272 33.8534 137.345 33.3542 138.082 32.3558C138.818 31.3574 139.186 29.8973 139.186 27.9878C139.186 26.1715 138.805 24.768 138.044 23.7754C137.283 22.7837 136.197 22.2835 134.799 22.2835C133.445 22.2835 132.396 22.7894 131.654 23.8003C130.912 24.8112 130.538 26.2339 130.538 28.056H130.537ZM125.744 40.2182L131.548 40.2C131.717 40.8739 132.065 41.3731 132.596 41.7043C133.126 42.0346 133.837 42.2035 134.73 42.2035C136.384 42.2035 137.538 41.8541 138.201 41.1552C138.855 40.4496 139.187 39.1584 139.187 37.2672V35.495C138.625 36.456 137.901 37.1674 137.003 37.6234C136.104 38.0784 134.987 38.3097 133.645 38.3097C131.075 38.3097 129.015 37.392 127.468 35.5574C125.92 33.7229 125.147 31.2825 125.147 28.2307C125.147 25.0109 125.908 22.4582 127.425 20.5613C128.941 18.6643 130.988 17.7158 133.559 17.7158C134.901 17.7158 136.043 17.9722 136.985 18.4838C137.927 19.0013 138.702 19.7818 139.301 20.8301V18.4272H144.355V36.9926C144.355 39.0835 144.161 40.6742 143.769 41.7667C143.382 42.8649 142.714 43.7885 141.778 44.5315C140.972 45.1555 139.956 45.6298 138.713 45.9485C137.478 46.273 136.068 46.4352 134.483 46.4352C131.824 46.4352 129.739 45.8918 128.211 44.8061C126.688 43.7146 125.871 42.1853 125.746 40.2192L125.744 40.2182ZM161.27 32.28H166.588C166.051 34.3766 164.971 36.0115 163.343 37.2038C161.714 38.3894 159.73 38.9817 157.383 38.9817C154.506 38.9817 152.222 38.015 150.543 36.0864C148.859 34.152 148.016 31.5312 148.016 28.2297C148.016 24.9725 148.846 22.4074 150.499 20.5296C152.159 18.6509 154.425 17.7149 157.301 17.7149C160.353 17.7149 162.706 18.6384 164.365 20.4854C166.019 22.3325 166.849 24.9658 166.849 28.3795C166.849 28.7597 166.849 29.041 166.843 29.2349C166.836 29.4221 166.818 29.6026 166.799 29.7715H153.519C153.594 31.3315 153.975 32.5114 154.662 33.3034C155.348 34.0963 156.34 34.489 157.632 34.489C158.55 34.489 159.299 34.3075 159.878 33.9523C160.465 33.5904 160.927 33.0346 161.27 32.28ZM153.519 26.2886H161.345C161.295 24.9475 160.94 23.9242 160.279 23.2253C159.611 22.5197 158.656 22.1702 157.414 22.1702C156.26 22.1702 155.348 22.5254 154.681 23.231C154.02 23.9424 153.633 24.96 153.52 26.2886H153.519Z" fill="white"/>
<path fill-rule="evenodd" clip-rule="evenodd" d="M202.029 33.7469V9.81312L186.829 33.7469H202.029ZM186.088 0H217.677C223.961 0 229.103 5.14176 229.103 11.4259V43.0147C229.103 49.2989 223.961 54.4406 217.677 54.4406H212.67V42.361H219.15V33.481H212.67V0.120961H198.803L178.19 32.521V42.361H201.79V54.4406H186.089C179.805 54.4406 174.663 49.2989 174.663 43.0147V11.4259C174.663 5.14176 179.805 0 186.089 0H186.088Z" fill="white"/>
<path d="M45.9572 48.719H47.2743C47.7024 48.719 48.0269 48.6278 48.2487 48.4454C48.4704 48.264 48.5808 47.9962 48.5808 47.6429C48.5808 47.3875 48.4973 47.1984 48.3303 47.0755C48.1632 46.9526 47.904 46.8902 47.5527 46.8902H46.2855L45.9572 48.72V48.719ZM43.9056 52.4246L45.0816 45.7142H47.6496C48.4272 45.7142 49.0138 45.8717 49.4122 46.1856C49.8106 46.4995 50.0093 46.9651 50.0093 47.5814C50.0093 48.0336 49.8989 48.4195 49.6762 48.7392C49.4535 49.0579 49.1444 49.2739 48.746 49.3891C48.9437 49.4621 49.0839 49.5715 49.1626 49.7174C49.2413 49.8634 49.2807 50.0995 49.2807 50.4278V50.6141L49.2624 51.4166C49.2596 51.4665 49.2576 51.5126 49.2567 51.5587C49.2548 51.6038 49.2528 51.6441 49.2528 51.6768C49.2528 51.8198 49.2759 51.9302 49.321 52.008C49.3661 52.0858 49.4458 52.153 49.561 52.2106V52.4256H47.9357C47.9031 52.368 47.88 52.3075 47.8656 52.2451C47.8512 52.1827 47.8455 52.0944 47.8455 51.9792C47.8455 51.8966 47.8455 51.8217 47.8474 51.7536C47.8493 51.6854 47.8522 51.6125 47.8551 51.5357L47.8906 50.7427V50.6621C47.8906 50.3635 47.8128 50.1533 47.6564 50.0323C47.4989 49.9114 47.2272 49.8499 46.8384 49.8499H45.7527L45.3063 52.4256H43.9066L43.9056 52.4246ZM51.8525 49.4477H53.8628C53.8628 49.4285 53.8647 49.4006 53.8676 49.3632C53.8704 49.3258 53.8724 49.296 53.8724 49.2797C53.8724 48.9734 53.7994 48.7411 53.6516 48.5827C53.5037 48.4262 53.2877 48.3466 53.0016 48.3466C52.705 48.3466 52.4554 48.4416 52.2567 48.6326C52.0589 48.8237 51.9245 49.0963 51.8535 49.4477H51.8525ZM53.5527 50.9971H54.9821C54.8487 51.4886 54.5684 51.8755 54.144 52.1549C53.7178 52.4352 53.2013 52.5744 52.5936 52.5744C51.914 52.5744 51.3831 52.368 51.0048 51.9552C50.6266 51.5414 50.4375 50.9645 50.4375 50.2224C50.4375 49.3718 50.6775 48.6758 51.1565 48.1334C51.6336 47.591 52.2519 47.3194 53.0045 47.3194C53.689 47.3194 54.2237 47.5142 54.6096 47.9011C54.9956 48.288 55.1885 48.8237 55.1885 49.5043C55.1885 49.5974 55.1837 49.705 55.1732 49.8259C55.1626 49.9459 55.1405 50.1274 55.106 50.3702H51.7354V50.4019C51.7354 50.7552 51.816 51.0259 51.9764 51.215C52.1386 51.4051 52.3671 51.4992 52.6656 51.4992C52.8692 51.4992 53.0439 51.457 53.1898 51.3744C53.3348 51.2918 53.4557 51.1661 53.5536 50.9952L53.5527 50.9971ZM59.1725 50.6419H60.4877C60.3792 51.2515 60.1191 51.7267 59.7082 52.0608C59.2992 52.3968 58.7722 52.5648 58.128 52.5648C57.408 52.5648 56.8522 52.3594 56.4624 51.9494C56.0717 51.5405 55.8778 50.9587 55.8778 50.2042C55.8778 49.3421 56.1159 48.6442 56.593 48.1104C57.0701 47.5766 57.6989 47.3107 58.4794 47.3107C59.1418 47.3107 59.6554 47.473 60.0212 47.7946C60.385 48.1162 60.578 48.5818 60.6 49.1866H59.2839C59.2772 48.9283 59.2042 48.7296 59.065 48.5914C58.9268 48.4531 58.7242 48.384 58.4602 48.384C58.0839 48.384 57.7786 48.5635 57.5434 48.9226C57.3101 49.2797 57.193 49.7453 57.193 50.3165C57.193 50.687 57.2784 50.9731 57.4484 51.1737C57.6192 51.3744 57.8612 51.4742 58.1732 51.4742C58.4218 51.4742 58.634 51.4032 58.8077 51.2582C58.9805 51.1133 59.1015 50.9078 59.1725 50.6438V50.6419ZM63.1229 48.0461C63.4032 47.7629 63.6576 47.5661 63.8909 47.4566C64.1223 47.3462 64.393 47.2915 64.7002 47.2915C65.1341 47.2915 65.4826 47.4163 65.7437 47.6669C66.0048 47.9155 66.1354 48.2457 66.1354 48.6566C66.1354 48.7363 66.1306 48.8227 66.12 48.9197C66.1095 49.0157 66.0932 49.1184 66.072 49.2326L65.5018 52.4256H64.1856L64.7367 49.273C64.7492 49.2086 64.7578 49.1501 64.7645 49.0934C64.7693 49.0358 64.7722 48.9907 64.7722 48.9533C64.7722 48.768 64.7213 48.6278 64.6186 48.5347C64.514 48.4397 64.3623 48.3926 64.1578 48.3926C63.8237 48.3926 63.5376 48.5136 63.2957 48.7555C63.0557 48.9965 62.8973 49.3267 62.8224 49.7462L62.3568 52.4246H61.058L62.234 45.7142H63.5405L63.122 48.0461H63.1229ZM69.7853 50.0352C69.5876 50.0957 69.3168 50.16 68.9732 50.2272C68.3136 50.353 67.9834 50.6064 67.9834 50.9894C67.9834 51.1392 68.0352 51.2582 68.1389 51.3475C68.2416 51.4378 68.3828 51.4829 68.5623 51.4829C68.8426 51.4829 69.0864 51.4003 69.2967 51.2371C69.5069 51.072 69.6346 50.8618 69.6807 50.6074L69.7853 50.0362V50.0352ZM69.5444 51.9283C69.3255 52.1434 69.1076 52.2989 68.8877 52.3939C68.6688 52.489 68.4269 52.537 68.1629 52.537C67.7079 52.537 67.3469 52.4064 67.0791 52.1453C66.8112 51.8842 66.6778 51.5376 66.6778 51.1066C66.6778 50.5517 66.8381 50.1331 67.1588 49.8518C67.4794 49.5706 68.0208 49.3901 68.7792 49.3075C68.8522 49.2979 68.9501 49.2873 69.0749 49.2768C69.674 49.2173 69.9725 49.0454 69.9725 48.7574C69.9725 48.624 69.9044 48.5165 69.7671 48.4339C69.6298 48.3514 69.4464 48.311 69.216 48.311C68.9924 48.311 68.8176 48.3533 68.6948 48.4387C68.5719 48.5232 68.4941 48.6557 68.4605 48.8342H67.1914C67.274 48.3178 67.4852 47.9366 67.8298 47.6909C68.1735 47.4451 68.6583 47.3222 69.289 47.3222C69.9149 47.3222 70.4045 47.447 70.7588 47.6957C71.112 47.9443 71.2896 48.287 71.2896 48.721C71.2896 48.7661 71.2877 48.8131 71.2829 48.8592C71.2781 48.9072 71.2704 48.9552 71.2618 49.007L70.8029 51.6432C70.7933 51.7066 70.7866 51.7642 70.7828 51.8141C70.778 51.864 70.7751 51.911 70.7751 51.9523C70.7751 52.0349 70.7856 52.103 70.8048 52.1558C70.825 52.2086 70.8596 52.2585 70.9076 52.3037V52.4266H69.5463V51.9302L69.5444 51.9283ZM71.8868 52.4246L72.7748 47.4499H73.9584L73.7626 48.4176C73.9632 48.0259 74.184 47.7427 74.424 47.5699C74.664 47.3971 74.9578 47.3107 75.3024 47.3107C75.3543 47.3107 75.3956 47.3107 75.4253 47.3126C75.456 47.3145 75.4829 47.3174 75.5079 47.3203L75.2621 48.6998C75.1536 48.6749 75.0634 48.6595 74.9933 48.6499C74.9232 48.6413 74.8647 48.6355 74.8157 48.6355C74.4999 48.6355 74.2436 48.7526 74.0458 48.9869C73.848 49.2202 73.7031 49.583 73.6138 50.0717L73.1943 52.4256H71.8877L71.8868 52.4246ZM78.1383 48.4579C77.7696 48.4579 77.4682 48.6307 77.233 48.9763C76.9988 49.321 76.8797 49.7616 76.8797 50.2973C76.8797 50.6352 76.9604 50.8963 77.1236 51.0777C77.2858 51.2592 77.5152 51.3514 77.8138 51.3514C78.1844 51.3514 78.48 51.1853 78.7018 50.8522C78.9226 50.519 79.0349 50.0698 79.0349 49.5034C79.0349 49.1597 78.9581 48.8995 78.8064 48.7229C78.6538 48.5472 78.4311 48.4579 78.1373 48.4579H78.1383ZM75.3312 52.8912H76.656C76.6628 53.0794 76.7261 53.2195 76.8471 53.3126C76.968 53.4048 77.1533 53.4509 77.4029 53.4509C77.7936 53.4509 78.0768 53.3405 78.2525 53.1187C78.4282 52.8979 78.578 52.4074 78.6989 51.6518C78.5165 51.9254 78.3101 52.1261 78.0816 52.2566C77.8532 52.3872 77.592 52.4525 77.3012 52.4525C76.7626 52.4525 76.3383 52.2614 76.0253 51.8803C75.7124 51.4992 75.5559 50.976 75.5559 50.3155C75.5559 49.4496 75.7786 48.7354 76.2231 48.1718C76.6676 47.6102 77.233 47.329 77.9156 47.329C78.3044 47.329 78.6106 47.4182 78.8362 47.5939C79.0599 47.7696 79.2269 48.0509 79.3325 48.4397L79.5005 47.4499H80.7543L79.8663 52.4074C79.7415 53.1312 79.4823 53.6486 79.0887 53.9616C78.6951 54.2745 78.1085 54.431 77.328 54.431C76.6906 54.431 76.202 54.3024 75.866 54.0422C75.528 53.783 75.3514 53.3981 75.3322 52.8912H75.3312ZM82.6618 49.4477H84.672C84.672 49.4285 84.674 49.4006 84.6768 49.3632C84.6797 49.3258 84.6816 49.296 84.6816 49.2797C84.6816 48.9734 84.6087 48.7411 84.4608 48.5827C84.313 48.4262 84.097 48.3466 83.8109 48.3466C83.5143 48.3466 83.2647 48.4416 83.066 48.6326C82.8682 48.8237 82.7338 49.0963 82.6628 49.4477H82.6618ZM84.362 50.9971H85.7914C85.658 51.4886 85.3776 51.8755 84.9533 52.1549C84.5271 52.4352 84.0106 52.5744 83.4029 52.5744C82.7232 52.5744 82.1924 52.368 81.8141 51.9552C81.4359 51.5414 81.2468 50.9645 81.2468 50.2224C81.2468 49.3718 81.4868 48.6758 81.9658 48.1334C82.4429 47.591 83.0612 47.3194 83.8138 47.3194C84.4983 47.3194 85.033 47.5142 85.4189 47.9011C85.8048 48.288 85.9978 48.8237 85.9978 49.5043C85.9978 49.5974 85.993 49.705 85.9824 49.8259C85.9719 49.9459 85.9498 50.1274 85.9152 50.3702H82.5447V50.4019C82.5447 50.7552 82.6253 51.0259 82.7856 51.215C82.9479 51.4051 83.1764 51.4992 83.4749 51.4992C83.6784 51.4992 83.8532 51.457 83.9991 51.3744C84.144 51.2918 84.265 51.1661 84.3629 50.9952L84.362 50.9971ZM89.2368 52.4246L89.9386 48.383H89.2608L89.4144 47.4499H90.1066L90.1978 46.9027C90.2746 46.4736 90.4464 46.1453 90.7162 45.9168C90.9869 45.6883 91.3364 45.575 91.7645 45.575C91.8423 45.575 91.9354 45.5808 92.0448 45.5933C92.1524 45.6058 92.2829 45.623 92.4384 45.648L92.2608 46.656C92.1716 46.6378 92.0976 46.6253 92.0352 46.6157C91.9728 46.6061 91.9172 46.6013 91.8692 46.6013C91.7568 46.6013 91.6714 46.6387 91.6128 46.7146C91.5533 46.7914 91.5053 46.9373 91.4679 47.1533L91.4132 47.4499H92.1188L91.9604 48.383H91.2548L90.5434 52.4246H89.2368ZM94.9508 48.3744C94.5466 48.3744 94.202 48.5654 93.9197 48.9466C93.6365 49.3277 93.4954 49.7837 93.4954 50.3155C93.4954 50.6822 93.5866 50.9722 93.7719 51.1786C93.9552 51.3869 94.2125 51.4915 94.5399 51.4915C94.9479 51.4915 95.2896 51.3082 95.5652 50.9395C95.8407 50.5718 95.977 50.1149 95.977 49.5686C95.977 49.1933 95.8868 48.9014 95.7053 48.6912C95.5248 48.48 95.2733 48.3744 94.9508 48.3744ZM92.1696 50.2857C92.1696 49.416 92.4356 48.7018 92.9693 48.1421C93.5031 47.5805 94.1876 47.3002 95.0237 47.3002C95.738 47.3002 96.2967 47.5027 96.6989 47.9078C97.1021 48.3139 97.3028 48.8755 97.3028 49.5926C97.3028 50.4576 97.0397 51.1718 96.5127 51.7315C95.9856 52.2931 95.3088 52.5725 94.4861 52.5725C93.7748 52.5725 93.2103 52.3661 92.7956 51.9533C92.3789 51.5395 92.1696 50.9827 92.1696 50.2838V50.2857ZM97.7895 52.4246L98.6775 47.4499H99.8612L99.6653 48.4176C99.866 48.0259 100.087 47.7427 100.327 47.5699C100.567 47.3971 100.861 47.3107 101.205 47.3107C101.257 47.3107 101.298 47.3107 101.328 47.3126C101.359 47.3145 101.386 47.3174 101.411 47.3203L101.165 48.6998C101.056 48.6749 100.966 48.6595 100.896 48.6499C100.826 48.6413 100.767 48.6355 100.718 48.6355C100.403 48.6355 100.146 48.7526 99.9485 48.9869C99.7508 49.2202 99.6058 49.583 99.5165 50.0717L99.097 52.4256H97.7904L97.7895 52.4246ZM107.04 50.0352C106.842 50.0957 106.572 50.16 106.228 50.2272C105.568 50.353 105.238 50.6064 105.238 50.9894C105.238 51.1392 105.29 51.2582 105.394 51.3475C105.496 51.4378 105.637 51.4829 105.817 51.4829C106.097 51.4829 106.341 51.4003 106.551 51.2371C106.762 51.072 106.889 50.8618 106.935 50.6074L107.04 50.0362V50.0352ZM106.799 51.9283C106.58 52.1434 106.362 52.2989 106.142 52.3939C105.924 52.489 105.682 52.537 105.418 52.537C104.963 52.537 104.602 52.4064 104.334 52.1453C104.066 51.8842 103.933 51.5376 103.933 51.1066C103.933 50.5517 104.093 50.1331 104.413 49.8518C104.734 49.5706 105.276 49.3901 106.034 49.3075C106.107 49.2979 106.205 49.2873 106.33 49.2768C106.929 49.2173 107.227 49.0454 107.227 48.7574C107.227 48.624 107.159 48.5165 107.022 48.4339C106.885 48.3514 106.701 48.311 106.471 48.311C106.247 48.311 106.072 48.3533 105.949 48.4387C105.827 48.5232 105.749 48.6557 105.715 48.8342H104.446C104.529 48.3178 104.74 47.9366 105.085 47.6909C105.428 47.4451 105.913 47.3222 106.544 47.3222C107.17 47.3222 107.659 47.447 108.013 47.6957C108.367 47.9443 108.544 48.287 108.544 48.721C108.544 48.7661 108.542 48.8131 108.538 48.8592C108.533 48.9072 108.525 48.9552 108.517 49.007L108.058 51.6432C108.048 51.7066 108.041 51.7642 108.037 51.8141C108.033 51.864 108.03 51.911 108.03 51.9523C108.03 52.0349 108.04 52.103 108.06 52.1558C108.08 52.2086 108.114 52.2585 108.162 52.3037V52.4266H106.801V51.9302L106.799 51.9283ZM109.141 52.4246L110.308 45.7142H111.614L110.448 52.4246H109.141ZM111.661 52.4246L112.828 45.7142H114.134L112.968 52.4246H111.661ZM116.666 54.3485L116.789 53.3577C116.828 53.3616 116.892 53.3674 116.98 53.375C117.069 53.3827 117.133 53.3856 117.171 53.3856C117.398 53.3856 117.569 53.3251 117.681 53.2051C117.793 53.0851 117.849 52.9046 117.849 52.6656C117.849 52.5926 117.839 52.4832 117.821 52.3373C117.818 52.3142 117.814 52.295 117.811 52.2826L117.038 47.4499H118.326L118.819 51.0806L120.464 47.4499H121.827L118.775 53.4586C118.596 53.8147 118.402 54.0653 118.195 54.2112C117.987 54.3571 117.722 54.4301 117.403 54.4301C117.316 54.4301 117.217 54.4243 117.108 54.4118C116.999 54.3994 116.851 54.3792 116.666 54.3475V54.3485ZM124.504 48.3734C124.1 48.3734 123.756 48.5645 123.473 48.9456C123.19 49.3267 123.049 49.7827 123.049 50.3146C123.049 50.6813 123.14 50.9712 123.325 51.1776C123.509 51.3859 123.766 51.4906 124.093 51.4906C124.501 51.4906 124.843 51.3072 125.119 50.9386C125.394 50.5709 125.531 50.1139 125.531 49.5677C125.531 49.1923 125.44 48.9005 125.259 48.6902C125.078 48.479 124.827 48.3734 124.504 48.3734ZM121.723 50.2848C121.723 49.415 121.989 48.7008 122.523 48.1411C123.057 47.5795 123.741 47.2992 124.577 47.2992C125.292 47.2992 125.85 47.5018 126.253 47.9069C126.656 48.313 126.856 48.8745 126.856 49.5917C126.856 50.4566 126.593 51.1709 126.066 51.7306C125.539 52.2922 124.862 52.5715 124.04 52.5715C123.328 52.5715 122.764 52.3651 122.349 51.9523C121.933 51.5386 121.723 50.9818 121.723 50.2829V50.2848ZM132.645 47.449L131.762 52.4237H130.568L130.705 51.6307C130.431 51.959 130.163 52.1952 129.898 52.3382C129.634 52.4822 129.341 52.5542 129.019 52.5542C128.571 52.5542 128.217 52.4314 127.954 52.1866C127.691 51.9427 127.56 51.6144 127.56 51.2016C127.56 51.1008 127.565 51.0029 127.574 50.903C127.584 50.8051 127.597 50.7091 127.615 50.6131L128.174 47.448H129.511L128.949 50.5728C128.939 50.6304 128.929 50.687 128.922 50.7408C128.916 50.7955 128.913 50.8464 128.913 50.8915C128.913 51.0768 128.967 51.2179 129.075 51.3149C129.182 51.4128 129.338 51.4608 129.537 51.4608C129.871 51.4608 130.158 51.3389 130.394 51.0979C130.632 50.857 130.788 50.5238 130.863 50.0976L131.352 47.447H132.646L132.645 47.449ZM132.952 52.4237L133.84 47.449H135.024L134.828 48.4166C135.029 48.0249 135.25 47.7418 135.49 47.569C135.73 47.3962 136.023 47.3097 136.368 47.3097C136.42 47.3097 136.461 47.3097 136.491 47.3117C136.522 47.3136 136.549 47.3165 136.573 47.3194L136.328 48.6989C136.219 48.6739 136.129 48.6586 136.059 48.649C135.989 48.6403 135.93 48.6346 135.881 48.6346C135.565 48.6346 135.309 48.7517 135.111 48.9859C134.914 49.2192 134.769 49.5821 134.679 50.0707L134.26 52.4246H132.953L132.952 52.4237ZM139.189 52.4237L140.414 45.7133H141.829L143.637 50.3424L144.452 45.7133H145.806L144.617 52.4237H143.209L141.392 47.7677L140.581 52.4237H139.188H139.189ZM147.492 49.4467H149.502C149.502 49.4275 149.504 49.3997 149.507 49.3622C149.509 49.3248 149.511 49.295 149.511 49.2787C149.511 48.9725 149.438 48.7401 149.291 48.5817C149.143 48.4253 148.927 48.3456 148.641 48.3456C148.344 48.3456 148.094 48.4406 147.896 48.6317C147.698 48.8227 147.564 49.0953 147.493 49.4467H147.492ZM149.192 50.9962H150.621C150.488 51.4877 150.207 51.8746 149.783 52.1539C149.357 52.4342 148.84 52.5734 148.233 52.5734C147.553 52.5734 147.022 52.367 146.644 51.9542C146.266 51.5405 146.077 50.9635 146.077 50.2214C146.077 49.3709 146.317 48.6749 146.796 48.1325C147.273 47.5901 147.891 47.3184 148.644 47.3184C149.328 47.3184 149.863 47.5133 150.249 47.9002C150.635 48.287 150.828 48.8227 150.828 49.5034C150.828 49.5965 150.823 49.704 150.812 49.825C150.802 49.945 150.78 50.1264 150.745 50.3693H147.374V50.401C147.374 50.7542 147.455 51.025 147.615 51.2141C147.778 51.4042 148.006 51.4982 148.305 51.4982C148.508 51.4982 148.683 51.456 148.829 51.3734C148.974 51.2909 149.095 51.1651 149.193 50.9942L149.192 50.9962ZM152.914 49.4467H154.924C154.924 49.4275 154.926 49.3997 154.929 49.3622C154.932 49.3248 154.933 49.295 154.933 49.2787C154.933 48.9725 154.861 48.7401 154.713 48.5817C154.565 48.4253 154.349 48.3456 154.063 48.3456C153.766 48.3456 153.517 48.4406 153.318 48.6317C153.12 48.8227 152.986 49.0953 152.915 49.4467H152.914ZM154.614 50.9962H156.043C155.91 51.4877 155.629 51.8746 155.205 52.1539C154.779 52.4342 154.262 52.5734 153.655 52.5734C152.975 52.5734 152.444 52.367 152.066 51.9542C151.688 51.5405 151.499 50.9635 151.499 50.2214C151.499 49.3709 151.739 48.6749 152.218 48.1325C152.695 47.5901 153.313 47.3184 154.066 47.3184C154.75 47.3184 155.285 47.5133 155.671 47.9002C156.057 48.287 156.25 48.8227 156.25 49.5034C156.25 49.5965 156.245 49.704 156.234 49.825C156.224 49.945 156.202 50.1264 156.167 50.3693H152.797V50.401C152.797 50.7542 152.877 51.025 153.037 51.2141C153.2 51.4042 153.428 51.4982 153.727 51.4982C153.93 51.4982 154.105 51.456 154.251 51.3734C154.396 51.2909 154.517 51.1651 154.615 50.9942L154.614 50.9962ZM159.468 48.4387C159.121 48.4387 158.826 48.6221 158.584 48.9907C158.341 49.3574 158.219 49.8058 158.219 50.3309C158.219 50.7014 158.296 50.9827 158.453 51.1737C158.61 51.3648 158.839 51.4617 159.139 51.4617C159.516 51.4617 159.819 51.2822 160.049 50.9232C160.278 50.5642 160.393 50.0928 160.393 49.5091C160.393 49.1587 160.313 48.8938 160.157 48.7114C159.998 48.529 159.769 48.4377 159.468 48.4377V48.4387ZM160.038 52.4237L160.188 51.5856C159.981 51.9168 159.754 52.1606 159.506 52.3181C159.259 52.4755 158.976 52.5542 158.656 52.5542C158.112 52.5542 157.684 52.3622 157.372 51.9802C157.059 51.5981 156.902 51.0768 156.902 50.4173C156.902 49.5398 157.121 48.8016 157.56 48.2054C158 47.6083 158.546 47.3097 159.2 47.3097C159.579 47.3097 159.882 47.3894 160.111 47.5459C160.338 47.7043 160.514 47.9587 160.635 48.3072L161.108 45.7142H162.399L161.223 52.4246H160.038V52.4237ZM162.463 50.7341H163.704C163.717 51 163.802 51.2083 163.96 51.3581C164.121 51.5088 164.337 51.5837 164.609 51.5837C164.855 51.5837 165.04 51.5386 165.163 51.4502C165.286 51.36 165.347 51.2275 165.347 51.0518C165.347 50.831 165.107 50.6429 164.627 50.4883L164.58 50.4739C163.906 50.255 163.456 50.0294 163.231 49.7942C163.005 49.561 162.892 49.248 162.892 48.8592C162.892 48.3754 163.065 47.999 163.411 47.7302C163.757 47.4614 164.242 47.327 164.864 47.327C165.49 47.327 165.974 47.472 166.32 47.761C166.667 48.0509 166.842 48.456 166.849 48.9792H165.608C165.578 48.7565 165.491 48.5856 165.351 48.4675C165.209 48.3475 165.021 48.289 164.783 48.289C164.578 48.289 164.416 48.3293 164.299 48.4099C164.183 48.4906 164.124 48.6029 164.124 48.7459C164.124 48.9466 164.414 49.1366 164.994 49.3162L165.027 49.3257C165.642 49.5168 166.06 49.727 166.278 49.9555C166.497 50.184 166.606 50.497 166.606 50.8915C166.606 51.4051 166.424 51.8122 166.062 52.1155C165.699 52.4189 165.208 52.5715 164.589 52.5715C163.915 52.5715 163.393 52.4131 163.021 52.0954C162.65 51.7776 162.464 51.3302 162.464 50.7514V50.7322L162.463 50.7341Z" fill="white"/>
</svg>
